# 3ds Max Wavefront OBJ Exporter v0.97b - (c)2007 guruware
# File Created: 08.04.2017 16:48:53

mtllib Door_Uv.mtl

#
# object Door_Uv
#

v  19.7264 -17.5239 -1.6324
v  19.7264 17.5239 -1.6324
v  19.7264 17.5239 1.6324
v  19.7264 -17.5239 1.6324
v  17.2458 -17.5239 -1.6324
v  17.2458 17.5239 -1.6324
v  4.9905 17.5239 1.6324
v  17.2458 20.8502 1.6324
v  17.2458 20.8502 -1.6324
v  4.9905 17.5239 -1.6324
v  4.9905 -17.5239 -1.6324
v  17.2458 -20.8502 -1.6324
v  17.2458 -20.8502 1.6324
v  4.9905 -17.5239 1.6324
v  4.9905 21.0236 -1.6324
v  4.9905 21.0236 1.6324
v  4.9905 -21.0236 1.6324
v  4.9905 -21.0236 -1.6324
v  1.6863 17.5239 1.6324
v  1.6863 -17.5239 1.6324
v  -0.0004 -17.5239 0.7102
v  -0.0004 17.5239 0.7102
v  -0.0004 17.5239 -0.7102
v  -0.0004 -17.5239 -0.7102
v  1.6863 -17.5239 -1.6324
v  1.6863 17.5239 -1.6324
v  1.6863 21.0236 -1.6324
v  1.6863 21.0236 1.6324
v  -0.0004 19.4213 0.7102
v  -0.0004 19.4213 -0.7102
v  1.6863 -21.0236 1.6324
v  1.6863 -21.0236 -1.6324
v  -0.0004 -19.4213 -0.7102
v  -0.0004 -19.4213 0.7102
v  17.2458 17.5239 1.6324
v  17.2458 -17.5239 1.6324
v  16.5307 -15.5047 1.6324
v  5.7056 -15.5047 1.6324
v  16.5307 15.5047 1.6324
v  5.7056 15.5047 1.6324
v  16.5307 -15.5047 0.7200
v  16.5307 15.5047 0.7200
v  5.7056 15.5047 0.7200
v  5.7056 -15.5047 0.7200
# 44 vertices

vn 0.5774 -0.5774 -0.5774
vn 0.5774 0.5774 -0.5774
vn 0.5774 0.5774 0.5774
vn 0.5774 -0.5774 0.5774
vn 0.3015 -0.3015 -0.9045
vn 0.3015 0.3015 -0.9045
vn 0.2175 0.2844 0.9337
vn 0.5014 0.6556 0.5647
vn 0.5014 0.6556 -0.5647
vn 0.2175 0.2844 -0.9337
vn 0.2175 -0.2844 -0.9337
vn 0.5014 -0.6556 -0.5647
vn 0.5014 -0.6556 0.5647
vn 0.2175 -0.2844 0.9337
vn -0.2476 0.0000 0.9689
vn -0.8602 0.0000 0.5100
vn -0.8602 0.0000 -0.5100
vn -0.2476 0.0000 -0.9689
vn -0.3452 0.6769 -0.6501
vn -0.3452 0.6769 0.6501
vn -0.8538 0.3015 0.4244
vn -0.8538 0.3015 -0.4244
vn -0.3452 -0.6769 0.6501
vn -0.3452 -0.6769 -0.6501
vn -0.8538 -0.3015 -0.4244
vn -0.8538 -0.3015 0.4244
vn 0.3015 0.3015 0.9045
vn 0.3015 -0.3015 0.9045
vn -0.3015 0.3015 0.9045
vn -0.3015 -0.3015 0.9045
vn -0.5774 0.5774 0.5774
vn -0.5774 -0.5774 0.5774
# 32 vertex normals

vt 0.0913 0.8828 0.0000
vt 0.7619 0.8746 0.0000
vt 0.7628 0.9370 0.0000
vt 0.0922 0.9453 0.0000
vt 0.0908 0.8354 0.0000
vt 0.7614 0.8271 0.0000
vt 0.6284 0.3319 0.0000
vt 0.6231 0.0890 0.0000
vt 0.6856 0.0876 0.0000
vt 0.6908 0.3305 0.0000
vt 0.6822 0.3583 0.0000
vt 0.6915 0.6010 0.0000
vt 0.6291 0.6034 0.0000
vt 0.6198 0.3606 0.0000
vt 0.7738 0.8355 0.0000
vt 0.7741 0.7686 0.0000
vt 0.8366 0.7689 0.0000
vt 0.8363 0.8358 0.0000
vt 0.9169 0.6504 0.0000
vt 0.9166 0.7173 0.0000
vt 0.8541 0.7170 0.0000
vt 0.8545 0.6501 0.0000
vt 0.2737 0.0823 0.0000
vt 0.2686 0.7529 0.0000
vt 0.2054 0.7524 0.0000
vt 0.2105 0.0818 0.0000
vt 0.0453 0.0638 0.0000
vt 0.0420 0.7343 0.0000
vt 0.0148 0.7342 0.0000
vt 0.0181 0.0636 0.0000
vt 0.1184 0.0859 0.0000
vt 0.1247 0.7564 0.0000
vt 0.0615 0.7570 0.0000
vt 0.0552 0.0865 0.0000
vt 0.7745 0.7053 0.0000
vt 0.8369 0.7057 0.0000
vt 0.0418 0.7706 0.0000
vt 0.0146 0.7705 0.0000
vt 0.1254 0.8234 0.0000
vt 0.0622 0.8240 0.0000
vt 0.2681 0.8198 0.0000
vt 0.2049 0.8193 0.0000
vt 0.9163 0.7805 0.0000
vt 0.8538 0.7802 0.0000
vt 0.0183 0.0273 0.0000
vt 0.0455 0.0274 0.0000
vt 0.2110 0.0149 0.0000
vt 0.2742 0.0153 0.0000
vt 0.0545 0.0195 0.0000
vt 0.1177 0.0189 0.0000
vt 0.1737 0.0815 0.0000
vt 0.1686 0.7521 0.0000
vt 0.1552 0.0855 0.0000
vt 0.1615 0.7561 0.0000
vt 0.8195 0.6611 0.0000
vt 0.7923 0.6609 0.0000
vt 0.1683 0.7884 0.0000
vt 0.1619 0.7924 0.0000
vt 0.8713 0.8248 0.0000
vt 0.8984 0.8250 0.0000
vt 0.1548 0.0492 0.0000
vt 0.1740 0.0452 0.0000
vt 0.9899 0.0088 0.0000
vt 0.9857 0.6291 0.0000
vt 0.7688 0.6276 0.0000
vt 0.7730 0.0073 0.0000
vt 0.7634 0.9845 0.0000
vt 0.0928 0.9927 0.0000
vt 0.7474 0.1030 0.0000
vt 0.5621 0.1070 0.0000
vt 0.5671 0.5891 0.0000
vt 0.7523 0.5820 0.0000
vt 0.6842 0.0240 0.0000
vt 0.6218 0.0253 0.0000
vt 0.8094 0.8740 0.0000
vt 0.8102 0.9364 0.0000
vt 0.6315 0.6670 0.0000
vt 0.6940 0.6646 0.0000
vt 0.0450 0.9461 0.0000
vt 0.0436 0.8837 0.0000
vt 0.5417 0.0104 0.0000
vt 0.5298 0.0515 0.0000
vt 0.3013 0.0560 0.0000
vt 0.2869 0.0166 0.0000
vt 0.5455 0.7370 0.0000
vt 0.5312 0.6977 0.0000
vt 0.2907 0.7432 0.0000
vt 0.3026 0.7022 0.0000
vt 0.5242 0.0566 0.0000
vt 0.5262 0.6921 0.0000
vt 0.3082 0.6971 0.0000
vt 0.3062 0.0616 0.0000
# 92 texture coords

g Door_Uv
usemtl default
s 1
f 1/1/1 2/2/2 3/3/3 4/4/4 
f 5/5/5 6/6/6 2/2/2 1/1/1 
f 7/7/7 8/8/8 9/9/9 10/10/10 
f 11/11/11 12/12/12 13/13/13 14/14/14 
f 10/15/10 15/16/2 16/17/3 7/18/7 
f 14/19/14 17/20/4 18/21/1 11/22/11 
f 14/23/14 7/24/7 19/25/15 20/26/15 
f 21/27/16 22/28/16 23/29/17 24/30/17 
f 25/31/18 26/32/18 10/33/10 11/34/11 
f 16/17/3 15/16/2 27/35/19 28/36/20 
f 22/28/16 29/37/21 30/38/22 23/29/17 
f 26/32/18 27/39/19 15/40/2 10/33/10 
f 7/24/7 16/41/3 28/42/20 19/25/15 
f 18/21/1 17/20/4 31/43/23 32/44/24 
f 24/30/17 33/45/25 34/46/26 21/27/16 
f 20/26/15 31/47/23 17/48/4 14/23/14 
f 11/34/11 18/49/1 32/50/24 25/31/18 
f 21/51/16 20/26/15 19/25/15 22/52/16 
f 25/31/18 24/53/17 23/54/17 26/32/18 
f 29/55/21 28/36/20 27/35/19 30/56/22 
f 19/25/15 28/42/20 29/57/21 22/52/16 
f 30/58/22 27/39/19 26/32/18 23/54/17 
f 33/59/25 32/44/24 31/43/23 34/60/26 
f 25/31/18 32/50/24 33/61/25 24/53/17 
f 34/62/26 31/47/23 20/26/15 21/51/16 
f 11/63/11 10/64/10 6/65/6 5/66/5 
f 4/4/4 3/3/3 35/67/27 36/68/28 
f 6/69/6 10/10/10 9/9/9 
f 7/7/7 35/70/27 8/8/8 
f 36/71/28 14/14/14 13/13/13 
f 11/11/11 5/72/5 12/12/12 
f 6/73/6 9/9/9 8/8/8 35/74/27 
f 2/2/2 6/75/6 35/76/27 3/3/3 
f 36/77/28 13/13/13 12/12/12 5/78/5 
f 4/4/4 36/79/28 5/80/5 1/1/1 
f 36/81/28 37/82/29 38/83/27 14/84/14 
f 35/85/27 39/86/30 37/82/29 36/81/28 
f 7/87/7 40/88/28 39/86/30 35/85/27 
f 14/84/14 38/83/27 40/88/28 7/87/7 
f 41/89/31 42/90/32 43/91/4 44/92/3 
f 38/83/27 44/92/3 43/91/4 40/88/28 
f 40/88/28 43/91/4 42/90/32 39/86/30 
f 39/86/30 42/90/32 41/89/31 37/82/29 
f 37/82/29 41/89/31 44/92/3 38/83/27 
# 40 polygons - 4 triangles

