# 3ds Max Wavefront OBJ Exporter v0.97b - (c)2007 guruware
# File Created: 02.09.2017 03:30:23

mtllib Mesh_Sphere_Rolling.mtl

#
# object Sphere001
#

v  -0.0000 22.3603 -0.0000
v  8.0409 20.6582 -2.9266
v  6.3088 20.6582 -5.7810
v  3.6163 20.6582 -7.7552
v  0.3732 20.6582 -8.5488
v  -2.9266 20.6582 -8.0409
v  -5.7810 20.6582 -6.3088
v  -7.7552 20.6582 -3.6163
v  -8.5488 20.6582 -0.3733
v  -8.0409 20.6582 2.9266
v  -6.3088 20.6582 5.7810
v  -3.6163 20.6582 7.7552
v  -0.3732 20.6582 8.5488
v  2.9266 20.6582 8.0409
v  5.7810 20.6582 6.3088
v  7.7552 20.6582 3.6163
v  8.5488 20.6582 0.3732
v  13.8287 15.8111 -7.6654
v  9.8426 15.8111 -12.3739
v  4.3581 15.8111 -15.1986
v  -1.7899 15.8111 -15.7095
v  -7.6654 15.8111 -13.8287
v  -12.3739 15.8111 -9.8427
v  -15.1986 15.8111 -4.3581
v  -15.7095 15.8111 1.7899
v  -13.8287 15.8111 7.6654
v  -9.8427 15.8111 12.3739
v  -4.3581 15.8111 15.1986
v  1.7899 15.8111 15.7095
v  7.6654 15.8111 13.8287
v  12.3739 15.8111 9.8426
v  15.1986 15.8111 4.3581
v  15.7095 15.8111 -1.7899
v  16.3893 8.5569 -12.5759
v  10.3291 8.5569 -17.8905
v  2.6964 8.5569 -20.4815
v  -5.3467 8.5569 -19.9543
v  -12.5759 8.5569 -16.3893
v  -17.8905 8.5569 -10.3291
v  -20.4815 8.5569 -2.6964
v  -19.9543 8.5569 5.3467
v  -16.3893 8.5569 12.5759
v  -10.3291 8.5569 17.8905
v  -2.6964 8.5569 20.4815
v  5.3467 8.5569 19.9543
v  12.5759 8.5569 16.3893
v  17.8905 8.5569 10.3291
v  20.4815 8.5569 2.6964
v  19.9543 8.5569 -5.3468
v  14.0718 -0.0000 -17.3772
v  6.3507 -0.0000 -21.4395
v  -2.3373 -0.0000 -22.2378
v  -10.6694 -0.0000 -19.6506
v  -17.3772 0.0000 -14.0718
v  -21.4395 0.0000 -6.3507
v  -22.2378 -0.0000 2.3373
v  -19.6506 0.0000 10.6694
v  -14.0718 -0.0000 17.3772
v  -6.3507 -0.0000 21.4395
v  2.3373 -0.0000 22.2378
v  10.6694 -0.0000 19.6506
v  17.3772 -0.0000 14.0718
v  21.4395 -0.0000 6.3506
v  22.2378 -0.0000 -2.3373
v  19.6506 -0.0000 -10.6694
v  6.8959 -8.5569 -19.4733
v  -1.0812 -8.5569 -20.6299
v  -8.8936 -8.5569 -18.6458
v  -15.3520 -8.5569 -13.8230
v  -19.4733 -8.5569 -6.8959
v  -20.6299 -8.5569 1.0812
v  -18.6458 -8.5569 8.8936
v  -13.8230 -8.5569 15.3520
v  -6.8959 -8.5569 19.4733
v  1.0812 -8.5569 20.6299
v  8.8936 -8.5569 18.6458
v  15.3520 -8.5569 13.8230
v  19.4733 -8.5569 6.8958
v  20.6299 -8.5569 -1.0812
v  18.6458 -8.5569 -8.8936
v  13.8230 -8.5569 -15.3521
v  1.9269 -15.8111 -15.6933
v  -4.2253 -15.8111 -15.2361
v  -9.7343 -15.8111 -12.4593
v  -13.7613 -15.8111 -7.7858
v  -15.6933 -15.8111 -1.9269
v  -15.2361 -15.8111 4.2253
v  -12.4593 -15.8111 9.7343
v  -7.7858 -15.8111 13.7613
v  -1.9269 -15.8111 15.6933
v  4.2253 -15.8111 15.2361
v  9.7343 -15.8111 12.4593
v  13.7613 -15.8111 7.7858
v  15.6933 -15.8111 1.9269
v  15.2361 -15.8111 -4.2253
v  12.4593 -15.8111 -9.7343
v  7.7857 -15.8111 -13.7613
v  -0.0000 -20.6582 -8.5569
v  -3.2746 -20.6582 -7.9056
v  -6.0507 -20.6582 -6.0507
v  -7.9056 -20.6582 -3.2746
v  -8.5569 -20.6582 -0.0000
v  -7.9056 -20.6582 3.2746
v  -6.0507 -20.6582 6.0506
v  -3.2746 -20.6582 7.9056
v  0.0000 -20.6582 8.5569
v  3.2746 -20.6582 7.9056
v  6.0507 -20.6582 6.0506
v  7.9056 -20.6582 3.2746
v  8.5569 -20.6582 -0.0000
v  7.9056 -20.6582 -3.2746
v  6.0506 -20.6582 -6.0507
v  3.2746 -20.6582 -7.9056
v  0.0000 -22.3603 -0.0000
# 114 vertices

vn 0.0000 1.0000 0.0000
vn 0.3946 0.9082 -0.1398
vn 0.3111 0.9082 -0.2801
vn 0.1802 0.9082 -0.3779
vn 0.0219 0.9082 -0.4181
vn -0.1398 0.9082 -0.3946
vn -0.2801 0.9082 -0.3111
vn -0.3779 0.9082 -0.1802
vn -0.4181 0.9082 -0.0219
vn -0.3946 0.9082 0.1398
vn -0.3111 0.9082 0.2801
vn -0.1802 0.9082 0.3779
vn -0.0219 0.9082 0.4181
vn 0.1398 0.9082 0.3946
vn 0.2801 0.9082 0.3111
vn 0.3779 0.9082 0.1802
vn 0.4181 0.9082 0.0219
vn 0.6442 0.6809 -0.3483
vn 0.4619 0.6809 -0.5683
vn 0.2092 0.6809 -0.7018
vn -0.0753 0.6809 -0.7285
vn -0.3483 0.6809 -0.6442
vn -0.5683 0.6809 -0.4619
vn -0.7018 0.6809 -0.2092
vn -0.7285 0.6809 0.0753
vn -0.6442 0.6809 0.3483
vn -0.4619 0.6809 0.5683
vn -0.2092 0.6809 0.7018
vn 0.0753 0.6809 0.7285
vn 0.3483 0.6809 0.6442
vn 0.5683 0.6809 0.4619
vn 0.7018 0.6809 0.2092
vn 0.7285 0.6809 -0.0753
vn 0.7579 0.3290 -0.5633
vn 0.4847 0.3290 -0.8105
vn 0.1376 0.3290 -0.9343
vn -0.2304 0.3290 -0.9158
vn -0.5633 0.3290 -0.7579
vn -0.8105 0.3290 -0.4847
vn -0.9343 0.3290 -0.1376
vn -0.9158 0.3290 0.2304
vn -0.7579 0.3290 0.5633
vn -0.4847 0.3290 0.8105
vn -0.1376 0.3290 0.9343
vn 0.2304 0.3290 0.9158
vn 0.5633 0.3290 0.7579
vn 0.8105 0.3290 0.4847
vn 0.9343 0.3290 0.1376
vn 0.9158 0.3290 -0.2304
vn 0.6328 -0.0427 -0.7732
vn 0.2887 -0.0427 -0.9565
vn -0.0993 -0.0427 -0.9941
vn -0.4722 -0.0427 -0.8805
vn -0.7732 -0.0427 -0.6328
vn -0.9565 -0.0427 -0.2887
vn -0.9941 -0.0427 0.0993
vn -0.8805 -0.0427 0.4722
vn -0.6328 -0.0427 0.7732
vn -0.2887 -0.0427 0.9565
vn 0.0993 -0.0427 0.9941
vn 0.4722 -0.0427 0.8805
vn 0.7732 -0.0427 0.6328
vn 0.9565 -0.0427 0.2887
vn 0.9941 -0.0427 -0.0993
vn 0.8805 -0.0427 -0.4722
vn 0.2992 -0.2881 -0.9097
vn -0.0717 -0.2881 -0.9549
vn -0.4317 -0.2881 -0.8548
vn -0.7259 -0.2881 -0.6245
vn -0.9097 -0.2881 -0.2992
vn -0.9549 -0.2881 0.0717
vn -0.8548 -0.2881 0.4317
vn -0.6245 -0.2881 0.7259
vn -0.2992 -0.2881 0.9097
vn 0.0717 -0.2881 0.9549
vn 0.4317 -0.2881 0.8548
vn 0.7259 -0.2881 0.6245
vn 0.9097 -0.2881 0.2992
vn 0.9549 -0.2881 -0.0717
vn 0.8548 -0.2881 -0.4317
vn 0.6245 -0.2881 -0.7259
vn 0.0774 -0.6621 -0.7454
vn -0.2137 -0.6621 -0.7183
vn -0.4724 -0.6621 -0.5818
vn -0.6591 -0.6621 -0.3568
vn -0.7454 -0.6621 -0.0774
vn -0.7183 -0.6621 0.2137
vn -0.5818 -0.6621 0.4724
vn -0.3568 -0.6621 0.6591
vn -0.0774 -0.6621 0.7454
vn 0.2137 -0.6621 0.7183
vn 0.4724 -0.6621 0.5818
vn 0.6591 -0.6621 0.3568
vn 0.7454 -0.6621 0.0774
vn 0.7183 -0.6621 -0.2137
vn 0.5818 -0.6621 -0.4724
vn 0.3568 -0.6621 -0.6591
vn -0.0024 -0.9103 -0.4140
vn -0.1607 -0.9103 -0.3816
vn -0.2945 -0.9103 -0.2910
vn -0.3834 -0.9103 -0.1562
vn -0.4140 -0.9103 0.0024
vn -0.3816 -0.9103 0.1607
vn -0.2910 -0.9103 0.2945
vn -0.1562 -0.9103 0.3834
vn 0.0024 -0.9103 0.4140
vn 0.1607 -0.9103 0.3816
vn 0.2945 -0.9103 0.2910
vn 0.3834 -0.9103 0.1562
vn 0.4140 -0.9103 -0.0024
vn 0.3816 -0.9103 -0.1607
vn 0.2910 -0.9103 -0.2945
vn 0.1562 -0.9103 -0.3834
vn 0.0000 -1.0000 0.0000
# 114 vertex normals

vt 0.5002 1.0000 0.0000
vt 0.0000 0.8750 0.0000
vt 0.0625 0.8750 0.0000
vt 0.1250 0.8750 0.0000
vt 0.1875 0.8750 0.0000
vt 0.2500 0.8750 0.0000
vt 0.3125 0.8750 0.0000
vt 0.3750 0.8750 0.0000
vt 0.4375 0.8750 0.0000
vt 0.5000 0.8750 0.0000
vt 0.5625 0.8750 0.0000
vt 0.6250 0.8750 0.0000
vt 0.6875 0.8750 0.0000
vt 0.7500 0.8750 0.0000
vt 0.8125 0.8750 0.0000
vt 0.8750 0.8750 0.0000
vt 0.9375 0.8750 0.0000
vt 1.0000 0.8750 0.0000
vt 0.0000 0.7500 0.0000
vt 0.0625 0.7500 0.0000
vt 0.1250 0.7500 0.0000
vt 0.1875 0.7500 0.0000
vt 0.2500 0.7500 0.0000
vt 0.3125 0.7500 0.0000
vt 0.3750 0.7500 0.0000
vt 0.4375 0.7500 0.0000
vt 0.5000 0.7500 0.0000
vt 0.5625 0.7500 0.0000
vt 0.6250 0.7500 0.0000
vt 0.6875 0.7500 0.0000
vt 0.7500 0.7500 0.0000
vt 0.8125 0.7500 0.0000
vt 0.8750 0.7500 0.0000
vt 0.9375 0.7500 0.0000
vt 1.0000 0.7500 0.0000
vt 0.0000 0.6250 0.0000
vt 0.0625 0.6250 0.0000
vt 0.1250 0.6250 0.0000
vt 0.1875 0.6250 0.0000
vt 0.2500 0.6250 0.0000
vt 0.3125 0.6250 0.0000
vt 0.3750 0.6250 0.0000
vt 0.4375 0.6250 0.0000
vt 0.5000 0.6250 0.0000
vt 0.5625 0.6250 0.0000
vt 0.6250 0.6250 0.0000
vt 0.6875 0.6250 0.0000
vt 0.7500 0.6250 0.0000
vt 0.8125 0.6250 0.0000
vt 0.8750 0.6250 0.0000
vt 0.9375 0.6250 0.0000
vt 1.0000 0.6250 0.0000
vt 0.0000 0.5000 0.0000
vt 0.0625 0.5000 0.0000
vt 0.1250 0.5000 0.0000
vt 0.1875 0.5000 0.0000
vt 0.2500 0.5000 0.0000
vt 0.3125 0.5000 0.0000
vt 0.3750 0.5000 0.0000
vt 0.4375 0.5000 0.0000
vt 0.5000 0.5000 0.0000
vt 0.5625 0.5000 0.0000
vt 0.6250 0.5000 0.0000
vt 0.6875 0.5000 0.0000
vt 0.7500 0.5000 0.0000
vt 0.8125 0.5000 0.0000
vt 0.8750 0.5000 0.0000
vt 0.9375 0.5000 0.0000
vt 1.0000 0.5000 0.0000
vt 0.0000 0.3750 0.0000
vt 0.0625 0.3750 0.0000
vt 0.1250 0.3750 0.0000
vt 0.1875 0.3750 0.0000
vt 0.2500 0.3750 0.0000
vt 0.3125 0.3750 0.0000
vt 0.3750 0.3750 0.0000
vt 0.4375 0.3750 0.0000
vt 0.5000 0.3750 0.0000
vt 0.5625 0.3750 0.0000
vt 0.6250 0.3750 0.0000
vt 0.6875 0.3750 0.0000
vt 0.7500 0.3750 0.0000
vt 0.8125 0.3750 0.0000
vt 0.8750 0.3750 0.0000
vt 0.9375 0.3750 0.0000
vt 1.0000 0.3750 0.0000
vt 0.0000 0.2500 0.0000
vt 0.0625 0.2500 0.0000
vt 0.1250 0.2500 0.0000
vt 0.1875 0.2500 0.0000
vt 0.2500 0.2500 0.0000
vt 0.3125 0.2500 0.0000
vt 0.3750 0.2500 0.0000
vt 0.4375 0.2500 0.0000
vt 0.5000 0.2500 0.0000
vt 0.5625 0.2500 0.0000
vt 0.6250 0.2500 0.0000
vt 0.6875 0.2500 0.0000
vt 0.7500 0.2500 0.0000
vt 0.8125 0.2500 0.0000
vt 0.8750 0.2500 0.0000
vt 0.9375 0.2500 0.0000
vt 1.0000 0.2500 0.0000
vt 0.0000 0.1250 0.0000
vt 0.0625 0.1250 0.0000
vt 0.1250 0.1250 0.0000
vt 0.1875 0.1250 0.0000
vt 0.2500 0.1250 0.0000
vt 0.3125 0.1250 0.0000
vt 0.3750 0.1250 0.0000
vt 0.4375 0.1250 0.0000
vt 0.5000 0.1250 0.0000
vt 0.5625 0.1250 0.0000
vt 0.6250 0.1250 0.0000
vt 0.6875 0.1250 0.0000
vt 0.7500 0.1250 0.0000
vt 0.8125 0.1250 0.0000
vt 0.8750 0.1250 0.0000
vt 0.9375 0.1250 0.0000
vt 1.0000 0.1250 0.0000
vt 0.5000 0.0000 0.0000
# 121 texture coords

g Sphere001
usemtl wire_143225087
s 1
f 1/1/1 2/2/2 3/3/3 
f 1/1/1 3/3/3 4/4/4 
f 1/1/1 4/4/4 5/5/5 
f 1/1/1 5/5/5 6/6/6 
f 1/1/1 6/6/6 7/7/7 
f 1/1/1 7/7/7 8/8/8 
f 1/1/1 8/8/8 9/9/9 
f 1/1/1 9/9/9 10/10/10 
f 1/1/1 10/10/10 11/11/11 
f 1/1/1 11/11/11 12/12/12 
f 1/1/1 12/12/12 13/13/13 
f 1/1/1 13/13/13 14/14/14 
f 1/1/1 14/14/14 15/15/15 
f 1/1/1 15/15/15 16/16/16 
f 1/1/1 16/16/16 17/17/17 
f 1/1/1 17/17/17 2/18/2 
f 2/2/2 18/19/18 19/20/19 3/3/3 
f 3/3/3 19/20/19 20/21/20 4/4/4 
f 4/4/4 20/21/20 21/22/21 5/5/5 
f 5/5/5 21/22/21 22/23/22 6/6/6 
f 6/6/6 22/23/22 23/24/23 7/7/7 
f 7/7/7 23/24/23 24/25/24 8/8/8 
f 8/8/8 24/25/24 25/26/25 9/9/9 
f 9/9/9 25/26/25 26/27/26 10/10/10 
f 10/10/10 26/27/26 27/28/27 11/11/11 
f 11/11/11 27/28/27 28/29/28 12/12/12 
f 12/12/12 28/29/28 29/30/29 13/13/13 
f 13/13/13 29/30/29 30/31/30 14/14/14 
f 14/14/14 30/31/30 31/32/31 15/15/15 
f 15/15/15 31/32/31 32/33/32 16/16/16 
f 16/16/16 32/33/32 33/34/33 17/17/17 
f 17/17/17 33/34/33 18/35/18 2/18/2 
f 18/19/18 34/36/34 35/37/35 19/20/19 
f 19/20/19 35/37/35 36/38/36 20/21/20 
f 20/21/20 36/38/36 37/39/37 21/22/21 
f 21/22/21 37/39/37 38/40/38 22/23/22 
f 22/23/22 38/40/38 39/41/39 23/24/23 
f 23/24/23 39/41/39 40/42/40 24/25/24 
f 24/25/24 40/42/40 41/43/41 25/26/25 
f 25/26/25 41/43/41 42/44/42 26/27/26 
f 26/27/26 42/44/42 43/45/43 27/28/27 
f 27/28/27 43/45/43 44/46/44 28/29/28 
f 28/29/28 44/46/44 45/47/45 29/30/29 
f 29/30/29 45/47/45 46/48/46 30/31/30 
f 30/31/30 46/48/46 47/49/47 31/32/31 
f 31/32/31 47/49/47 48/50/48 32/33/32 
f 32/33/32 48/50/48 49/51/49 33/34/33 
f 33/34/33 49/51/49 34/52/34 18/35/18 
f 34/36/34 50/53/50 51/54/51 35/37/35 
f 35/37/35 51/54/51 52/55/52 36/38/36 
f 36/38/36 52/55/52 53/56/53 37/39/37 
f 37/39/37 53/56/53 54/57/54 38/40/38 
f 38/40/38 54/57/54 55/58/55 39/41/39 
f 39/41/39 55/58/55 56/59/56 40/42/40 
f 40/42/40 56/59/56 57/60/57 41/43/41 
f 41/43/41 57/60/57 58/61/58 42/44/42 
f 42/44/42 58/61/58 59/62/59 43/45/43 
f 43/45/43 59/62/59 60/63/60 44/46/44 
f 44/46/44 60/63/60 61/64/61 45/47/45 
f 45/47/45 61/64/61 62/65/62 46/48/46 
f 46/48/46 62/65/62 63/66/63 47/49/47 
f 47/49/47 63/66/63 64/67/64 48/50/48 
f 48/50/48 64/67/64 65/68/65 49/51/49 
f 49/51/49 65/68/65 50/69/50 34/52/34 
f 50/53/50 66/70/66 67/71/67 51/54/51 
f 51/54/51 67/71/67 68/72/68 52/55/52 
f 52/55/52 68/72/68 69/73/69 53/56/53 
f 53/56/53 69/73/69 70/74/70 54/57/54 
f 54/57/54 70/74/70 71/75/71 55/58/55 
f 55/58/55 71/75/71 72/76/72 56/59/56 
f 56/59/56 72/76/72 73/77/73 57/60/57 
f 57/60/57 73/77/73 74/78/74 58/61/58 
f 58/61/58 74/78/74 75/79/75 59/62/59 
f 59/62/59 75/79/75 76/80/76 60/63/60 
f 60/63/60 76/80/76 77/81/77 61/64/61 
f 61/64/61 77/81/77 78/82/78 62/65/62 
f 62/65/62 78/82/78 79/83/79 63/66/63 
f 63/66/63 79/83/79 80/84/80 64/67/64 
f 64/67/64 80/84/80 81/85/81 65/68/65 
f 65/68/65 81/85/81 66/86/66 50/69/50 
f 66/70/66 82/87/82 83/88/83 67/71/67 
f 67/71/67 83/88/83 84/89/84 68/72/68 
f 68/72/68 84/89/84 85/90/85 69/73/69 
f 69/73/69 85/90/85 86/91/86 70/74/70 
f 70/74/70 86/91/86 87/92/87 71/75/71 
f 71/75/71 87/92/87 88/93/88 72/76/72 
f 72/76/72 88/93/88 89/94/89 73/77/73 
f 73/77/73 89/94/89 90/95/90 74/78/74 
f 74/78/74 90/95/90 91/96/91 75/79/75 
f 75/79/75 91/96/91 92/97/92 76/80/76 
f 76/80/76 92/97/92 93/98/93 77/81/77 
f 77/81/77 93/98/93 94/99/94 78/82/78 
f 78/82/78 94/99/94 95/100/95 79/83/79 
f 79/83/79 95/100/95 96/101/96 80/84/80 
f 80/84/80 96/101/96 97/102/97 81/85/81 
f 81/85/81 97/102/97 82/103/82 66/86/66 
f 82/87/82 98/104/98 99/105/99 83/88/83 
f 83/88/83 99/105/99 100/106/100 84/89/84 
f 84/89/84 100/106/100 101/107/101 85/90/85 
f 85/90/85 101/107/101 102/108/102 86/91/86 
f 86/91/86 102/108/102 103/109/103 87/92/87 
f 87/92/87 103/109/103 104/110/104 88/93/88 
f 88/93/88 104/110/104 105/111/105 89/94/89 
f 89/94/89 105/111/105 106/112/106 90/95/90 
f 90/95/90 106/112/106 107/113/107 91/96/91 
f 91/96/91 107/113/107 108/114/108 92/97/92 
f 92/97/92 108/114/108 109/115/109 93/98/93 
f 93/98/93 109/115/109 110/116/110 94/99/94 
f 94/99/94 110/116/110 111/117/111 95/100/95 
f 95/100/95 111/117/111 112/118/112 96/101/96 
f 96/101/96 112/118/112 113/119/113 97/102/97 
f 97/102/97 113/119/113 98/120/98 82/103/82 
f 114/121/114 99/105/99 98/104/98 
f 114/121/114 100/106/100 99/105/99 
f 114/121/114 101/107/101 100/106/100 
f 114/121/114 102/108/102 101/107/101 
f 114/121/114 103/109/103 102/108/102 
f 114/121/114 104/110/104 103/109/103 
f 114/121/114 105/111/105 104/110/104 
f 114/121/114 106/112/106 105/111/105 
f 114/121/114 107/113/107 106/112/106 
f 114/121/114 108/114/108 107/113/107 
f 114/121/114 109/115/109 108/114/108 
f 114/121/114 110/116/110 109/115/109 
f 114/121/114 111/117/111 110/116/110 
f 114/121/114 112/118/112 111/117/111 
f 114/121/114 113/119/113 112/118/112 
f 114/121/114 98/120/98 113/119/113 
# 96 polygons - 32 triangles

