# 3ds Max Wavefront OBJ Exporter v0.97b - (c)2007 guruware
# File Created: 08.04.2017 14:47:09

mtllib RewardPicture_Uv.mtl

#
# object RewardPicture_Uv
#

v  10.0000 -12.6458 -0.0000
v  10.0000 12.6458 -0.0000
v  -10.0000 12.6458 -0.0000
v  -10.0000 -12.6458 -0.0000
v  -8.8625 -11.2530 -0.9260
v  -9.7217 -13.5472 1.2475
v  -10.2530 -13.2917 1.2482
v  -8.9991 -11.1856 -0.9245
v  -8.7298 -11.2230 -0.8576
v  -9.2047 -13.4373 1.5089
v  -8.6766 -11.1173 -0.7617
v  -9.0057 -13.0247 1.8801
v  -8.7387 -10.9956 -0.6945
v  -9.2395 -12.5520 2.1437
v  -8.8753 -10.9281 -0.6930
v  -9.7709 -12.2964 2.1445
v  -9.0080 -10.9582 -0.7614
v  -10.2878 -12.4063 1.8831
v  -9.0613 -11.0639 -0.8573
v  -10.4868 -12.8189 1.5119
v  -9.7044 -13.9858 0.9330
v  -9.7983 -14.1817 1.2010
v  -10.7002 -13.7454 1.2040
v  -10.6063 -13.5495 0.9360
v  -8.8271 -13.7968 1.3784
v  -8.9209 -13.9926 1.6464
v  -8.4864 -13.0969 2.0092
v  -8.5802 -13.2928 2.2772
v  -8.8862 -12.2941 2.4559
v  -8.9801 -12.4900 2.7240
v  -9.7881 -11.8578 2.4590
v  -9.8820 -12.0537 2.7270
v  -10.6654 -12.0469 2.0136
v  -10.7593 -12.2428 2.2816
v  -11.0062 -12.7468 1.3827
v  -11.1000 -12.9427 1.6508
v  -9.8401 -13.1177 1.9640
v  -8.9597 11.6076 -0.9260
v  -10.7505 13.2793 1.2475
v  -10.3111 13.6724 1.2482
v  -8.8452 11.7080 -0.9245
v  -8.9828 11.4735 -0.8576
v  -10.8468 12.7597 1.5089
v  -8.9055 11.3839 -0.7617
v  -10.5418 12.4179 1.8801
v  -8.7692 11.3948 -0.6945
v  -10.0155 12.4530 2.1437
v  -8.6547 11.4951 -0.6930
v  -9.5761 12.8461 2.1445
v  -8.6316 11.6292 -0.7614
v  -9.4798 13.3658 1.8831
v  -8.7089 11.7189 -0.8573
v  -9.7848 13.7075 1.5119
v  -11.1623 13.4312 0.9330
v  -11.3074 13.5929 1.2010
v  -10.5592 14.2592 1.2040
v  -10.4141 14.0975 0.9360
v  -11.3234 12.5483 1.3784
v  -11.4684 12.7100 1.6464
v  -10.8072 11.9657 2.0092
v  -10.9522 12.1274 2.2772
v  -9.9125 12.0279 2.4559
v  -10.0576 12.1896 2.7240
v  -9.1642 12.6942 2.4590
v  -9.3093 12.8559 2.7270
v  -9.0032 13.5771 2.0136
v  -9.1483 13.7388 2.2816
v  -9.5194 14.1597 1.3827
v  -9.6645 14.3214 1.6508
v  -10.3084 13.2244 1.9640
v  10.2530 -13.2917 1.2482
v  9.7217 -13.5472 1.2475
v  8.8625 -11.2530 -0.9260
v  8.9991 -11.1856 -0.9245
v  9.2047 -13.4373 1.5089
v  8.7298 -11.2230 -0.8576
v  9.0057 -13.0247 1.8801
v  8.6766 -11.1173 -0.7617
v  9.2395 -12.5520 2.1437
v  8.7387 -10.9956 -0.6945
v  9.7709 -12.2964 2.1445
v  8.8753 -10.9281 -0.6930
v  10.2878 -12.4063 1.8831
v  9.0080 -10.9582 -0.7614
v  10.4868 -12.8189 1.5119
v  9.0613 -11.0639 -0.8573
v  10.7002 -13.7454 1.2040
v  9.7983 -14.1817 1.2010
v  9.7044 -13.9858 0.9330
v  10.6063 -13.5495 0.9360
v  8.9209 -13.9926 1.6464
v  8.8271 -13.7968 1.3784
v  8.5802 -13.2928 2.2772
v  8.4864 -13.0969 2.0092
v  8.9801 -12.4900 2.7240
v  8.8862 -12.2941 2.4559
v  9.8820 -12.0537 2.7270
v  9.7881 -11.8578 2.4590
v  10.7593 -12.2428 2.2816
v  10.6654 -12.0469 2.0136
v  11.1000 -12.9427 1.6508
v  11.0062 -12.7468 1.3827
v  9.8401 -13.1177 1.9640
v  10.3111 13.6724 1.2482
v  10.7505 13.2793 1.2475
v  8.9597 11.6076 -0.9260
v  8.8452 11.7080 -0.9245
v  10.8468 12.7597 1.5089
v  8.9828 11.4735 -0.8576
v  10.5418 12.4179 1.8801
v  8.9055 11.3839 -0.7617
v  10.0155 12.4530 2.1437
v  8.7692 11.3948 -0.6945
v  9.5761 12.8461 2.1445
v  8.6547 11.4951 -0.6930
v  9.4798 13.3658 1.8831
v  8.6316 11.6292 -0.7614
v  9.7848 13.7075 1.5119
v  8.7089 11.7189 -0.8573
v  10.5592 14.2592 1.2040
v  11.3074 13.5929 1.2010
v  11.1623 13.4312 0.9330
v  10.4141 14.0975 0.9360
v  11.4684 12.7100 1.6464
v  11.3234 12.5483 1.3784
v  10.9522 12.1274 2.2772
v  10.8072 11.9657 2.0092
v  10.0576 12.1896 2.7240
v  9.9125 12.0279 2.4559
v  9.3093 12.8559 2.7270
v  9.1642 12.6942 2.4590
v  9.1483 13.7388 2.2816
v  9.0032 13.5771 2.0136
v  9.6645 14.3214 1.6508
v  9.5194 14.1597 1.3827
v  10.3084 13.2244 1.9640
# 136 vertices

vn 0.0000 0.0000 1.0000
vn 0.0799 -0.7003 -0.7094
vn 0.2480 0.0530 -0.9673
vn -0.1157 0.2294 -0.9664
vn -0.6008 -0.3734 -0.7069
vn 0.7387 -0.5604 -0.3745
vn 0.6017 0.1296 -0.7882
vn 0.9945 -0.0314 0.0998
vn 0.7391 0.4116 -0.5333
vn 0.6953 0.5707 0.4369
vn 0.5780 0.7354 -0.3537
vn 0.0154 0.8992 0.4372
vn 0.2140 0.9112 -0.3520
vn -0.6442 0.7577 0.1046
vn -0.1394 0.8352 -0.5320
vn -0.8992 0.2304 -0.3720
vn -0.2771 0.5526 -0.7860
vn 0.1962 -0.2731 -0.9418
vn -0.1466 -0.9885 0.0371
vn -0.6818 -0.7305 0.0390
vn -0.3388 -0.0144 -0.9408
vn 0.7169 -0.1611 -0.6783
vn 0.3738 -0.8772 0.3014
vn 0.9183 0.2539 -0.3037
vn 0.5755 -0.4615 0.6751
vn 0.6818 0.7305 -0.0390
vn 0.3388 0.0144 0.9408
vn 0.1466 0.9885 -0.0371
vn -0.1962 0.2731 0.9418
vn -0.3738 0.8771 -0.3014
vn -0.7169 0.1611 0.6783
vn -0.5755 0.4615 -0.6751
vn -0.9183 -0.2539 0.3037
vn -0.2721 -0.5678 0.7769
vn -0.6776 0.1942 -0.7094
vn -0.0459 -0.2494 -0.9673
vn 0.2562 0.0191 -0.9664
vn -0.1150 0.6979 -0.7069
vn -0.8004 -0.4680 -0.3745
vn -0.1105 -0.6055 -0.7882
vn -0.4096 -0.9068 0.0998
vn 0.0974 -0.8403 -0.5333
vn 0.2611 -0.8608 0.4369
vn 0.4583 -0.8154 -0.3537
vn 0.8249 -0.3584 0.4372
vn 0.7600 -0.5464 -0.3520
vn 0.9465 0.3052 0.1046
vn 0.8250 -0.1908 -0.5320
vn 0.5570 0.7426 -0.3720
vn 0.6166 0.0445 -0.7860
vn -0.3274 -0.0768 -0.9418
vn -0.8572 0.5137 0.0371
vn -0.4139 0.9095 0.0390
vn 0.1163 0.3185 -0.9408
vn -0.4232 -0.6007 -0.6783
vn -0.9534 -0.0097 0.3014
vn -0.1168 -0.9456 -0.3037
vn -0.6466 -0.3551 0.6751
vn 0.4139 -0.9095 -0.0390
vn -0.1163 -0.3185 0.9408
vn 0.8572 -0.5137 -0.0371
vn 0.3274 0.0768 0.9418
vn 0.9534 0.0097 -0.3014
vn 0.4232 0.6007 0.6783
vn 0.6466 0.3551 -0.6751
vn 0.1168 0.9456 0.3037
vn -0.4205 0.4686 0.7769
vn 0.1157 0.2294 -0.9664
vn -0.2480 0.0530 -0.9673
vn -0.0799 -0.7003 -0.7094
vn 0.6008 -0.3734 -0.7069
vn -0.6017 0.1296 -0.7882
vn -0.7387 -0.5604 -0.3745
vn -0.7391 0.4116 -0.5333
vn -0.9945 -0.0314 0.0998
vn -0.5780 0.7354 -0.3537
vn -0.6953 0.5707 0.4369
vn -0.2140 0.9112 -0.3520
vn -0.0154 0.8992 0.4372
vn 0.1394 0.8352 -0.5320
vn 0.6442 0.7577 0.1046
vn 0.2771 0.5526 -0.7860
vn 0.8992 0.2304 -0.3720
vn 0.6818 -0.7305 0.0390
vn 0.1466 -0.9885 0.0371
vn -0.1962 -0.2731 -0.9418
vn 0.3388 -0.0144 -0.9408
vn -0.3738 -0.8772 0.3014
vn -0.7169 -0.1611 -0.6783
vn -0.5755 -0.4615 0.6751
vn -0.9183 0.2539 -0.3037
vn -0.3388 0.0144 0.9408
vn -0.6818 0.7305 -0.0390
vn 0.1962 0.2731 0.9418
vn -0.1466 0.9885 -0.0371
vn 0.7169 0.1611 0.6783
vn 0.3738 0.8771 -0.3014
vn 0.9183 -0.2539 0.3037
vn 0.5755 0.4615 -0.6751
vn 0.2721 -0.5678 0.7769
vn -0.2562 0.0191 -0.9664
vn 0.0459 -0.2494 -0.9673
vn 0.6776 0.1942 -0.7094
vn 0.1150 0.6979 -0.7069
vn 0.1105 -0.6055 -0.7882
vn 0.8004 -0.4680 -0.3745
vn -0.0974 -0.8403 -0.5333
vn 0.4096 -0.9068 0.0998
vn -0.4583 -0.8154 -0.3537
vn -0.2611 -0.8608 0.4369
vn -0.7600 -0.5464 -0.3520
vn -0.8249 -0.3584 0.4372
vn -0.8250 -0.1908 -0.5320
vn -0.9465 0.3052 0.1046
vn -0.6166 0.0445 -0.7860
vn -0.5570 0.7426 -0.3720
vn 0.4139 0.9095 0.0390
vn 0.8572 0.5137 0.0371
vn 0.3274 -0.0768 -0.9418
vn -0.1163 0.3185 -0.9408
vn 0.9534 -0.0097 0.3014
vn 0.4232 -0.6007 -0.6783
vn 0.6466 -0.3551 0.6751
vn 0.1168 -0.9456 -0.3037
vn 0.1163 -0.3185 0.9408
vn -0.4139 -0.9095 -0.0390
vn -0.3274 0.0768 0.9418
vn -0.8572 -0.5137 -0.0371
vn -0.4232 0.6007 0.6783
vn -0.9534 0.0097 -0.3014
vn -0.1168 0.9456 0.3037
vn -0.6466 0.3551 -0.6751
vn 0.4205 0.4686 0.7769
# 133 vertex normals

vt 0.7887 0.0162 0.0000
vt 0.7879 0.9929 0.0000
vt 0.0156 0.9923 0.0000
vt 0.0163 0.0156 0.0000
vt 0.9224 0.1291 0.0000
vt 0.8273 0.1983 0.0000
vt 0.8160 0.1804 0.0000
vt 0.9195 0.1245 0.0000
vt 0.9164 0.0925 0.0000
vt 0.8042 0.0573 0.0000
vt 0.8119 0.0376 0.0000
vt 0.9184 0.0874 0.0000
vt 0.9151 0.0978 0.0000
vt 0.7993 0.0779 0.0000
vt 0.9146 0.1033 0.0000
vt 0.7971 0.0989 0.0000
vt 0.9147 0.1087 0.0000
vt 0.7977 0.1201 0.0000
vt 0.9156 0.1143 0.0000
vt 0.8011 0.1409 0.0000
vt 0.9172 0.1195 0.0000
vt 0.8072 0.1611 0.0000
vt 0.8062 0.6982 0.0000
vt 0.8186 0.6980 0.0000
vt 0.8190 0.7340 0.0000
vt 0.8066 0.7342 0.0000
vt 0.9366 0.5611 0.0000
vt 0.9290 0.5789 0.0000
vt 0.9039 0.5532 0.0000
vt 0.9218 0.5460 0.0000
vt 0.8089 0.9500 0.0000
vt 0.8212 0.9499 0.0000
vt 0.8216 0.9858 0.0000
vt 0.8092 0.9859 0.0000
vt 0.9578 0.5613 0.0000
vt 0.9650 0.5792 0.0000
vt 0.8085 0.9140 0.0000
vt 0.8209 0.9139 0.0000
vt 0.9729 0.5465 0.0000
vt 0.9907 0.5541 0.0000
vt 0.8082 0.8780 0.0000
vt 0.8205 0.8779 0.0000
vt 0.9731 0.5253 0.0000
vt 0.9910 0.5181 0.0000
vt 0.8078 0.8421 0.0000
vt 0.8202 0.8419 0.0000
vt 0.9583 0.5102 0.0000
vt 0.9659 0.4924 0.0000
vt 0.8074 0.8061 0.0000
vt 0.8198 0.8060 0.0000
vt 0.9371 0.5100 0.0000
vt 0.9299 0.4921 0.0000
vt 0.8070 0.7701 0.0000
vt 0.8194 0.7700 0.0000
vt 0.9220 0.5248 0.0000
vt 0.9042 0.5173 0.0000
vt 0.9911 0.8554 0.0000
vt 0.9657 0.8809 0.0000
vt 0.9477 0.8375 0.0000
vt 0.9297 0.8808 0.0000
vt 0.9042 0.8555 0.0000
vt 0.9043 0.8195 0.0000
vt 0.9297 0.7940 0.0000
vt 0.9656 0.7941 0.0000
vt 0.9911 0.8194 0.0000
vt 0.9816 0.2485 0.0000
vt 0.9466 0.1362 0.0000
vt 0.9672 0.1313 0.0000
vt 0.9869 0.2472 0.0000
vt 0.9765 0.2505 0.0000
vt 0.9269 0.1439 0.0000
vt 0.9717 0.2531 0.0000
vt 0.9083 0.1541 0.0000
vt 0.9673 0.2564 0.0000
vt 0.8913 0.1666 0.0000
vt 0.9634 0.2602 0.0000
vt 0.8761 0.1814 0.0000
vt 0.9600 0.2645 0.0000
vt 0.8630 0.1980 0.0000
vt 0.9572 0.2692 0.0000
vt 0.8522 0.2162 0.0000
vt 0.9883 0.1292 0.0000
vt 0.9924 0.2467 0.0000
vt 0.8445 0.7699 0.0000
vt 0.8321 0.7701 0.0000
vt 0.8317 0.7341 0.0000
vt 0.8441 0.7340 0.0000
vt 0.8703 0.4338 0.0000
vt 0.8883 0.4265 0.0000
vt 0.8879 0.4625 0.0000
vt 0.8701 0.4549 0.0000
vt 0.8449 0.8059 0.0000
vt 0.8325 0.8060 0.0000
vt 0.8555 0.4187 0.0000
vt 0.8631 0.4009 0.0000
vt 0.8454 0.8419 0.0000
vt 0.8330 0.8420 0.0000
vt 0.8343 0.4185 0.0000
vt 0.8271 0.4005 0.0000
vt 0.8458 0.8778 0.0000
vt 0.8334 0.8780 0.0000
vt 0.8192 0.4333 0.0000
vt 0.8015 0.4257 0.0000
vt 0.8462 0.9138 0.0000
vt 0.8338 0.9139 0.0000
vt 0.8190 0.4545 0.0000
vt 0.8011 0.4617 0.0000
vt 0.8466 0.9498 0.0000
vt 0.8342 0.9499 0.0000
vt 0.8339 0.4696 0.0000
vt 0.8263 0.4873 0.0000
vt 0.8470 0.9858 0.0000
vt 0.8346 0.9859 0.0000
vt 0.8550 0.4698 0.0000
vt 0.8623 0.4877 0.0000
vt 0.8312 0.6981 0.0000
vt 0.8436 0.6980 0.0000
vt 0.9919 0.7546 0.0000
vt 0.9667 0.7803 0.0000
vt 0.9484 0.7369 0.0000
vt 0.9308 0.7805 0.0000
vt 0.9051 0.7553 0.0000
vt 0.9049 0.7193 0.0000
vt 0.9301 0.6936 0.0000
vt 0.9660 0.6934 0.0000
vt 0.9917 0.7186 0.0000
vt 0.7981 0.2183 0.0000
vt 0.8193 0.2191 0.0000
vt 0.8071 0.3360 0.0000
vt 0.8016 0.3359 0.0000
vt 0.8401 0.2227 0.0000
vt 0.8125 0.3370 0.0000
vt 0.8603 0.2290 0.0000
vt 0.8177 0.3386 0.0000
vt 0.8795 0.2380 0.0000
vt 0.8226 0.3409 0.0000
vt 0.8973 0.2495 0.0000
vt 0.8272 0.3439 0.0000
vt 0.9134 0.2632 0.0000
vt 0.8314 0.3474 0.0000
vt 0.9276 0.2789 0.0000
vt 0.8351 0.3515 0.0000
vt 0.9395 0.2964 0.0000
vt 0.8381 0.3560 0.0000
vt 0.8697 0.6980 0.0000
vt 0.8699 0.7340 0.0000
vt 0.8575 0.7340 0.0000
vt 0.8573 0.6980 0.0000
vt 0.9932 0.9606 0.0000
vt 0.9677 0.9860 0.0000
vt 0.9603 0.9680 0.0000
vt 0.9754 0.9531 0.0000
vt 0.8700 0.7699 0.0000
vt 0.8576 0.7700 0.0000
vt 0.9317 0.9858 0.0000
vt 0.9392 0.9680 0.0000
vt 0.8702 0.8059 0.0000
vt 0.8578 0.8060 0.0000
vt 0.9063 0.9603 0.0000
vt 0.9243 0.9530 0.0000
vt 0.8703 0.8419 0.0000
vt 0.8579 0.8419 0.0000
vt 0.9065 0.9244 0.0000
vt 0.9243 0.9318 0.0000
vt 0.8705 0.8778 0.0000
vt 0.8581 0.8779 0.0000
vt 0.9320 0.8990 0.0000
vt 0.9394 0.9169 0.0000
vt 0.8707 0.9138 0.0000
vt 0.8583 0.9139 0.0000
vt 0.9680 0.8991 0.0000
vt 0.9605 0.9169 0.0000
vt 0.8708 0.9498 0.0000
vt 0.8585 0.9498 0.0000
vt 0.9934 0.9246 0.0000
vt 0.9754 0.9320 0.0000
vt 0.8710 0.9858 0.0000
vt 0.8586 0.9858 0.0000
vt 0.9499 0.6308 0.0000
vt 0.9686 0.6740 0.0000
vt 0.9327 0.6745 0.0000
vt 0.9936 0.6481 0.0000
vt 0.9930 0.6121 0.0000
vt 0.9671 0.5871 0.0000
vt 0.9311 0.5877 0.0000
vt 0.9062 0.6136 0.0000
vt 0.9068 0.6496 0.0000
vt 0.9091 0.3254 0.0000
vt 0.9284 0.3168 0.0000
vt 0.9693 0.4270 0.0000
vt 0.9643 0.4293 0.0000
vt 0.9487 0.3107 0.0000
vt 0.9745 0.4255 0.0000
vt 0.9697 0.3075 0.0000
vt 0.9799 0.4246 0.0000
vt 0.9908 0.3071 0.0000
vt 0.9854 0.4245 0.0000
vt 0.8480 0.3830 0.0000
vt 0.8604 0.3656 0.0000
vt 0.9517 0.4396 0.0000
vt 0.9487 0.4439 0.0000
vt 0.8748 0.3500 0.0000
vt 0.9554 0.4356 0.0000
vt 0.8911 0.3366 0.0000
vt 0.9596 0.4321 0.0000
vt 0.8936 0.8419 0.0000
vt 0.8935 0.8779 0.0000
vt 0.8811 0.8779 0.0000
vt 0.8812 0.8419 0.0000
vt 0.8273 0.5840 0.0000
vt 0.8018 0.5587 0.0000
vt 0.8196 0.5512 0.0000
vt 0.8347 0.5661 0.0000
vt 0.8934 0.9139 0.0000
vt 0.8810 0.9138 0.0000
vt 0.8017 0.5228 0.0000
vt 0.8195 0.5301 0.0000
vt 0.8933 0.9498 0.0000
vt 0.8809 0.9498 0.0000
vt 0.8269 0.4972 0.0000
vt 0.8344 0.5150 0.0000
vt 0.8932 0.9858 0.0000
vt 0.8808 0.9858 0.0000
vt 0.8629 0.4971 0.0000
vt 0.8556 0.5149 0.0000
vt 0.8941 0.6980 0.0000
vt 0.8939 0.7340 0.0000
vt 0.8816 0.7340 0.0000
vt 0.8817 0.6980 0.0000
vt 0.8885 0.5223 0.0000
vt 0.8706 0.5298 0.0000
vt 0.8938 0.7700 0.0000
vt 0.8814 0.7699 0.0000
vt 0.8886 0.5583 0.0000
vt 0.8707 0.5510 0.0000
vt 0.8937 0.8059 0.0000
vt 0.8813 0.8059 0.0000
vt 0.8633 0.5839 0.0000
vt 0.8558 0.5660 0.0000
vt 0.8499 0.6406 0.0000
vt 0.8683 0.6839 0.0000
vt 0.8323 0.6842 0.0000
vt 0.8935 0.6582 0.0000
vt 0.8932 0.6222 0.0000
vt 0.8674 0.5971 0.0000
vt 0.8315 0.5974 0.0000
vt 0.8063 0.6231 0.0000
vt 0.8066 0.6591 0.0000
# 248 texture coords

g RewardPicture_Uv
usemtl default
s 1
f 1/1/1 2/2/1 3/3/1 4/4/1 
f 5/5/2 6/6/3 7/7/4 8/8/5 
f 9/9/6 10/10/7 6/11/3 5/12/2 
f 11/13/8 12/14/9 10/10/7 9/9/6 
f 13/15/10 14/16/11 12/14/9 11/13/8 
f 15/17/12 16/18/13 14/16/11 13/15/10 
f 17/19/14 18/20/15 16/18/13 15/17/12 
f 19/21/16 20/22/17 18/20/15 17/19/14 
f 8/8/5 7/7/4 20/22/17 19/21/16 
f 21/23/18 22/24/19 23/25/20 24/26/21 
f 6/27/3 21/28/18 24/29/21 7/30/4 
f 25/31/22 26/32/23 22/33/19 21/34/18 
f 10/35/7 25/36/22 21/28/18 6/27/3 
f 27/37/24 28/38/25 26/32/23 25/31/22 
f 12/39/9 27/40/24 25/36/22 10/35/7 
f 29/41/26 30/42/27 28/38/25 27/37/24 
f 14/43/11 29/44/26 27/40/24 12/39/9 
f 31/45/28 32/46/29 30/42/27 29/41/26 
f 16/47/13 31/48/28 29/44/26 14/43/11 
f 33/49/30 34/50/31 32/46/29 31/45/28 
f 18/51/15 33/52/30 31/48/28 16/47/13 
f 35/53/32 36/54/33 34/50/31 33/49/30 
f 20/55/17 35/56/32 33/52/30 18/51/15 
f 24/26/21 23/25/20 36/54/33 35/53/32 
f 7/30/4 24/29/21 35/56/32 20/55/17 
f 23/57/20 22/58/19 37/59/34 
f 22/58/19 26/60/23 37/59/34 
f 26/60/23 28/61/25 37/59/34 
f 28/61/25 30/62/27 37/59/34 
f 30/62/27 32/63/29 37/59/34 
f 32/63/29 34/64/31 37/59/34 
f 34/64/31 36/65/33 37/59/34 
f 36/65/33 23/57/20 37/59/34 
f 38/66/35 39/67/36 40/68/37 41/69/38 
f 42/70/39 43/71/40 39/67/36 38/66/35 
f 44/72/41 45/73/42 43/71/40 42/70/39 
f 46/74/43 47/75/44 45/73/42 44/72/41 
f 48/76/45 49/77/46 47/75/44 46/74/43 
f 50/78/47 51/79/48 49/77/46 48/76/45 
f 52/80/49 53/81/50 51/79/48 50/78/47 
f 41/69/38 40/68/37 53/82/50 52/83/49 
f 54/84/51 55/85/52 56/86/53 57/87/54 
f 39/88/36 54/89/51 57/90/54 40/91/37 
f 58/92/55 59/93/56 55/85/52 54/84/51 
f 43/94/40 58/95/55 54/89/51 39/88/36 
f 60/96/57 61/97/58 59/93/56 58/92/55 
f 45/98/42 60/99/57 58/95/55 43/94/40 
f 62/100/59 63/101/60 61/97/58 60/96/57 
f 47/102/44 62/103/59 60/99/57 45/98/42 
f 64/104/61 65/105/62 63/101/60 62/100/59 
f 49/106/46 64/107/61 62/103/59 47/102/44 
f 66/108/63 67/109/64 65/105/62 64/104/61 
f 51/110/48 66/111/63 64/107/61 49/106/46 
f 68/112/65 69/113/66 67/109/64 66/108/63 
f 53/114/50 68/115/65 66/111/63 51/110/48 
f 57/87/54 56/86/53 69/116/66 68/117/65 
f 40/91/37 57/90/54 68/115/65 53/114/50 
f 56/118/53 55/119/52 70/120/67 
f 55/119/52 59/121/56 70/120/67 
f 59/121/56 61/122/58 70/120/67 
f 61/122/58 63/123/60 70/120/67 
f 63/123/60 65/124/62 70/120/67 
f 65/124/62 67/125/64 70/120/67 
f 67/125/64 69/126/66 70/120/67 
f 69/126/66 56/118/53 70/120/67 
f 71/127/68 72/128/69 73/129/70 74/130/71 
f 72/128/69 75/131/72 76/132/73 73/129/70 
f 75/131/72 77/133/74 78/134/75 76/132/73 
f 77/133/74 79/135/76 80/136/77 78/134/75 
f 79/135/76 81/137/78 82/138/79 80/136/77 
f 81/137/78 83/139/80 84/140/81 82/138/79 
f 83/139/80 85/141/82 86/142/83 84/140/81 
f 85/141/82 71/143/68 74/144/71 86/142/83 
f 87/145/84 88/146/85 89/147/86 90/148/87 
f 90/149/87 89/150/86 72/151/69 71/152/68 
f 88/146/85 91/153/88 92/154/89 89/147/86 
f 89/150/86 92/155/89 75/156/72 72/151/69 
f 91/153/88 93/157/90 94/158/91 92/154/89 
f 92/155/89 94/159/91 77/160/74 75/156/72 
f 93/157/90 95/161/92 96/162/93 94/158/91 
f 94/159/91 96/163/93 79/164/76 77/160/74 
f 95/161/92 97/165/94 98/166/95 96/162/93 
f 96/163/93 98/167/95 81/168/78 79/164/76 
f 97/165/94 99/169/96 100/170/97 98/166/95 
f 98/167/95 100/171/97 83/172/80 81/168/78 
f 99/169/96 101/173/98 102/174/99 100/170/97 
f 100/171/97 102/175/99 85/176/82 83/172/80 
f 101/173/98 87/177/84 90/178/87 102/174/99 
f 102/175/99 90/149/87 71/152/68 85/176/82 
f 103/179/100 88/180/85 87/181/84 
f 103/179/100 91/182/88 88/180/85 
f 103/179/100 93/183/90 91/182/88 
f 103/179/100 95/184/92 93/183/90 
f 103/179/100 97/185/94 95/184/92 
f 103/179/100 99/186/96 97/185/94 
f 103/179/100 101/187/98 99/186/96 
f 103/179/100 87/181/84 101/187/98 
f 104/188/101 105/189/102 106/190/103 107/191/104 
f 105/189/102 108/192/105 109/193/106 106/190/103 
f 108/192/105 110/194/107 111/195/108 109/193/106 
f 110/194/107 112/196/109 113/197/110 111/195/108 
f 112/198/109 114/199/111 115/200/112 113/201/110 
f 114/199/111 116/202/113 117/203/114 115/200/112 
f 116/202/113 118/204/115 119/205/116 117/203/114 
f 118/204/115 104/188/101 107/191/104 119/205/116 
f 120/206/117 121/207/118 122/208/119 123/209/120 
f 123/210/120 122/211/119 105/212/102 104/213/101 
f 121/207/118 124/214/121 125/215/122 122/208/119 
f 122/211/119 125/216/122 108/217/105 105/212/102 
f 124/214/121 126/218/123 127/219/124 125/215/122 
f 125/216/122 127/220/124 110/221/107 108/217/105 
f 126/218/123 128/222/125 129/223/126 127/219/124 
f 127/220/124 129/224/126 112/225/109 110/221/107 
f 128/226/125 130/227/127 131/228/128 129/229/126 
f 129/224/126 131/230/128 114/231/111 112/225/109 
f 130/227/127 132/232/129 133/233/130 131/228/128 
f 131/230/128 133/234/130 116/235/113 114/231/111 
f 132/232/129 134/236/131 135/237/132 133/233/130 
f 133/234/130 135/238/132 118/239/115 116/235/113 
f 134/236/131 120/206/117 123/209/120 135/237/132 
f 135/238/132 123/210/120 104/213/101 118/239/115 
f 136/240/133 121/241/118 120/242/117 
f 136/240/133 124/243/121 121/241/118 
f 136/240/133 126/244/123 124/243/121 
f 136/240/133 128/245/125 126/244/123 
f 136/240/133 130/246/127 128/245/125 
f 136/240/133 132/247/129 130/246/127 
f 136/240/133 134/248/131 132/247/129 
f 136/240/133 120/242/117 134/248/131 
# 97 polygons - 32 triangles

