# 3ds Max Wavefront OBJ Exporter v0.97b - (c)2007 guruware
# File Created: 08.04.2017 13:51:15

mtllib Table_Tottle_Uv.mtl

#
# object Table_Tottle_Uv
#

v  -0.0000 18.8430 -12.1540
v  -0.0000 -0.0743 -12.1540
v  -28.6139 -0.0743 -12.1540
v  -28.6139 18.8430 -12.1540
v  -28.6139 -0.0743 -3.8057
v  -28.6139 18.8430 -3.8057
v  -28.6139 -0.0743 12.0770
v  -0.0000 -0.0743 -3.8057
v  -0.0000 -0.0743 12.0770
v  -0.0000 18.8430 12.0770
v  -0.0000 18.8430 -3.8057
v  -28.6139 18.8430 12.0770
v  -0.0000 35.1556 -12.1540
v  -0.0000 33.0769 -12.1540
v  -28.6139 33.0769 -12.1540
v  -28.6139 35.1556 -12.1540
v  -28.6139 33.0769 -3.8057
v  -28.6139 35.1556 -3.8057
v  -28.6139 64.0826 -3.8057
v  -26.4725 66.2281 -5.9512
v  -26.4725 66.2281 -10.0085
v  -28.6139 64.0826 -12.1540
v  -0.0000 64.0826 -3.8057
v  -0.0000 66.2281 -5.9512
v  -0.0000 33.0769 -3.8057
v  -0.0000 64.0826 -12.1540
v  -0.0000 66.2281 -10.0001
v  -15.4068 67.4595 -5.9721
v  -0.0000 73.1698 -10.0085
v  -15.3359 67.5764 -10.0461
v  -9.3460 71.0994 -5.9888
v  -0.0000 73.1698 -5.9512
v  -0.0000 68.9998 -10.0001
v  -0.0000 68.9998 -5.9512
v  -0.0000 53.8935 -12.1540
v  -28.6139 53.8935 -12.1540
v  -28.6139 53.8935 -3.8057
v  -0.0000 53.8935 -3.8057
v  -0.0000 51.8231 -12.1540
v  -28.6139 51.8231 -12.1540
v  -28.6139 51.8231 -3.8057
v  -28.6139 33.0769 10.8540
v  -0.0000 33.0769 10.8540
v  -0.0000 35.1556 10.8540
v  -0.0000 35.1556 -3.8057
v  -28.6139 35.1556 10.8540
v  -28.6139 53.8935 10.8540
v  -28.6139 51.8231 10.8540
v  -0.0000 51.8231 10.8540
v  -0.0000 53.8935 10.8540
v  -0.0000 51.8231 -3.8057
v  -15.4068 67.5472 -10.0294
v  -26.4725 66.2281 -9.9918
v  -27.3498 59.8973 8.1917
v  -27.3498 59.8973 9.5839
v  -25.9576 59.8973 9.5839
v  -25.9576 59.8973 8.1917
v  -27.3498 16.8713 9.5839
v  -25.9576 16.8713 9.5839
v  -25.9576 16.8713 8.1917
v  -27.3498 16.8713 8.1917
v  28.6139 18.8430 -12.1540
v  28.6139 -0.0743 -12.1540
v  28.6139 18.8430 -3.8057
v  28.6139 -0.0743 -3.8057
v  28.6139 -0.0743 12.0770
v  28.6139 18.8430 12.0770
v  28.6139 35.1556 -12.1540
v  28.6139 33.0769 -12.1540
v  28.6139 35.1556 -3.8057
v  28.6139 33.0769 -3.8057
v  28.6139 64.0826 -3.8057
v  28.6139 64.0826 -12.1540
v  26.4725 66.2281 -10.0085
v  26.4725 66.2281 -5.9512
v  15.4068 67.4595 -5.9721
v  9.3460 71.0994 -5.9888
v  15.3359 67.5764 -10.0461
v  28.6139 53.8935 -12.1540
v  28.6139 53.8935 -3.8057
v  28.6139 51.8231 -12.1540
v  28.6139 51.8231 -3.8057
v  28.6139 33.0769 10.8540
v  28.6139 35.1556 10.8540
v  28.6139 53.8935 10.8540
v  28.6139 51.8231 10.8540
v  15.4068 67.5472 -10.0294
v  26.4725 66.2281 -9.9918
v  27.3498 59.8973 8.1917
v  25.9576 59.8973 8.1917
v  25.9576 59.8973 9.5839
v  27.3498 59.8973 9.5839
v  25.9576 16.8713 9.5839
v  27.3498 16.8713 9.5839
v  25.9576 16.8713 8.1917
v  27.3498 16.8713 8.1917
# 96 vertices

vn 0.0000 0.0000 -1.0000
vn 0.0000 -0.7071 -0.7071
vn -0.5774 -0.5774 -0.5774
vn -0.7071 0.0000 -0.7071
vn -0.7071 -0.7071 -0.0000
vn -0.9045 0.3015 0.3015
vn -0.5774 -0.5774 0.5774
vn 0.0000 -1.0000 -0.0000
vn 0.0000 -0.7071 0.7071
vn 0.0000 0.7071 0.7071
vn -0.5774 0.5774 0.5774
vn -0.9045 -0.3015 0.3015
vn -0.6507 0.3912 0.6508
vn -0.3292 0.8896 0.3167
vn -0.2991 0.9062 -0.2989
vn -0.6507 0.3912 -0.6508
vn 0.0000 0.3827 0.9239
vn 0.0000 0.3831 0.9237
vn 0.0000 0.3835 -0.9235
vn 0.0000 0.3831 -0.9237
vn -0.2053 0.6180 0.7589
vn -0.0000 0.7487 -0.6629
vn -0.2337 0.3447 -0.9092
vn -0.2891 0.7562 0.5871
vn -0.0000 0.7491 0.6624
vn -0.0000 -0.0014 -1.0000
vn 0.0000 0.0008 1.0000
vn 0.0376 -0.3420 -0.9389
vn 0.8414 0.0499 -0.5381
vn -0.5774 0.5774 -0.5774
vn 0.5774 0.5774 0.5774
vn 0.5774 0.5774 -0.5774
vn -0.7071 0.0000 0.7071
vn 0.7071 0.0000 0.7071
vn 0.7071 0.0000 -0.7071
vn 0.5774 -0.5774 -0.5774
vn 0.9045 0.3015 0.3015
vn 0.7071 -0.7071 -0.0000
vn 0.5774 -0.5774 0.5774
vn 0.9045 -0.3015 0.3015
vn 0.6507 0.3912 0.6508
vn 0.6507 0.3912 -0.6508
vn 0.2991 0.9062 -0.2989
vn 0.3292 0.8896 0.3167
vn 0.2053 0.6180 0.7589
vn 0.2891 0.7562 0.5871
vn 0.2337 0.3447 -0.9092
vn -0.0376 -0.3420 -0.9389
vn -0.8413 0.0506 -0.5381
# 49 vertex normals

vt 0.7302 0.8381 0.0000
vt 0.8328 0.8381 0.0000
vt 0.8327 0.9933 0.0000
vt 0.7301 0.9933 0.0000
vt 0.7649 0.0142 0.0000
vt 0.9875 0.0142 0.0000
vt 0.9875 0.1125 0.0000
vt 0.7649 0.1125 0.0000
vt 0.8538 0.8306 0.0000
vt 0.9428 0.8306 0.0000
vt 0.9428 0.9909 0.0000
vt 0.8538 0.9909 0.0000
vt 0.8020 0.6463 0.0000
vt 0.6152 0.6463 0.0000
vt 0.6152 0.3096 0.0000
vt 0.8020 0.3096 0.0000
vt 0.6418 0.8381 0.0000
vt 0.6530 0.8381 0.0000
vt 0.6530 0.9932 0.0000
vt 0.6417 0.9932 0.0000
vt 0.5730 0.0142 0.0000
vt 0.5975 0.0142 0.0000
vt 0.5975 0.1125 0.0000
vt 0.5730 0.1125 0.0000
vt 0.1012 0.1223 0.0000
vt 0.3238 0.1223 0.0000
vt 0.3238 0.4590 0.0000
vt 0.1012 0.4590 0.0000
vt 0.2327 0.1125 0.0000
vt 0.1970 0.0872 0.0000
vt 0.1970 0.0395 0.0000
vt 0.2327 0.0142 0.0000
vt 0.9896 0.8306 0.0000
vt 0.9896 0.9909 0.0000
vt 0.7649 0.2993 0.0000
vt 0.9875 0.2993 0.0000
vt 0.4111 0.1544 0.0000
vt 0.4468 0.1292 0.0000
vt 0.4468 0.4658 0.0000
vt 0.4111 0.4658 0.0000
vt 0.8165 0.3154 0.0000
vt 0.9840 0.3154 0.0000
vt 0.9840 0.6521 0.0000
vt 0.8165 0.6521 0.0000
vt 0.4849 0.8380 0.0000
vt 0.4848 0.9932 0.0000
vt 0.4684 0.9815 0.0000
vt 0.4684 0.8380 0.0000
vt 0.6074 0.5201 0.0000
vt 0.4767 0.5199 0.0000
vt 0.6074 0.4722 0.0000
vt 0.3966 0.2846 0.0000
vt 0.6415 0.1193 0.0000
vt 0.7585 0.2716 0.0000
vt 0.6699 0.2381 0.0000
vt 0.6030 0.1475 0.0000
vt 0.3494 0.9427 0.0000
vt 0.1994 0.9849 0.0000
vt 0.2024 0.9452 0.0000
vt 0.3785 0.4658 0.0000
vt 0.3295 0.4658 0.0000
vt 0.3538 0.3559 0.0000
vt 0.5401 0.8380 0.0000
vt 0.5401 0.9932 0.0000
vt 0.3525 0.0142 0.0000
vt 0.3525 0.1125 0.0000
vt 0.5667 0.1292 0.0000
vt 0.5667 0.4658 0.0000
vt 0.5514 0.8380 0.0000
vt 0.5513 0.9932 0.0000
vt 0.3769 0.0142 0.0000
vt 0.3769 0.1125 0.0000
vt 0.9112 0.6666 0.0000
vt 0.9920 0.6666 0.0000
vt 0.9920 0.8244 0.0000
vt 0.9112 0.8244 0.0000
vt 0.0983 0.8569 0.0000
vt 0.0983 0.6845 0.0000
vt 0.4349 0.6845 0.0000
vt 0.4349 0.8569 0.0000
vt 0.3525 0.2849 0.0000
vt 0.3769 0.2849 0.0000
vt 0.0441 0.8590 0.0000
vt 0.0197 0.8590 0.0000
vt 0.0197 0.5223 0.0000
vt 0.0441 0.5223 0.0000
vt 0.0818 0.8604 0.0000
vt 0.0574 0.8604 0.0000
vt 0.0574 0.5238 0.0000
vt 0.0818 0.5238 0.0000
vt 0.4640 0.8280 0.0000
vt 0.4640 0.6555 0.0000
vt 0.8007 0.6555 0.0000
vt 0.8007 0.8280 0.0000
vt 0.8173 0.6655 0.0000
vt 0.8981 0.6655 0.0000
vt 0.8981 0.8234 0.0000
vt 0.8173 0.8234 0.0000
vt 0.5730 0.2849 0.0000
vt 0.5975 0.2849 0.0000
vt 0.1001 0.6760 0.0000
vt 0.1001 0.4798 0.0000
vt 0.4368 0.4798 0.0000
vt 0.4368 0.6760 0.0000
vt 0.7221 0.3029 0.0000
vt 0.4759 0.4718 0.0000
vt 0.3095 0.9133 0.0000
vt 0.4561 0.8995 0.0000
vt 0.4561 0.9258 0.0000
vt 0.2043 0.9258 0.0000
vt 0.3501 0.9427 0.0000
vt 0.4568 0.9415 0.0000
vt 0.6074 0.4724 0.0000
vt 0.2948 0.4723 0.0000
vt 0.7435 0.1433 0.0000
vt 0.7435 0.1597 0.0000
vt 0.7271 0.1597 0.0000
vt 0.7271 0.1433 0.0000
vt 0.0291 0.5132 0.0000
vt 0.0291 0.0070 0.0000
vt 0.0455 0.0070 0.0000
vt 0.0455 0.5132 0.0000
vt 0.0521 0.5113 0.0000
vt 0.0521 0.0051 0.0000
vt 0.0685 0.0051 0.0000
vt 0.0685 0.5113 0.0000
vt 0.0062 0.5113 0.0000
vt 0.0062 0.0051 0.0000
vt 0.0226 0.0051 0.0000
vt 0.0226 0.5113 0.0000
vt 0.0757 0.5107 0.0000
vt 0.0757 0.0045 0.0000
vt 0.0920 0.0045 0.0000
vt 0.0920 0.5107 0.0000
# 134 texture coords

g Table_Tottle_Uv
usemtl default
s 1
f 1/1/1 2/2/2 3/3/3 4/4/4 
f 4/5/4 3/6/3 5/7/5 6/8/6 
f 7/9/7 5/10/5 8/11/8 9/12/9 
f 10/13/10 11/14/10 6/15/6 12/16/11 
f 13/17/1 14/18/1 15/19/4 16/20/4 
f 16/21/4 15/22/4 17/23/12 18/24/6 
f 12/25/11 7/26/7 9/27/9 10/28/10 
f 19/29/13 20/30/14 21/31/15 22/32/16 
f 5/10/5 3/33/3 2/34/2 8/11/8 
f 12/35/11 6/8/6 5/7/5 7/36/7 
f 20/37/14 19/38/13 23/39/17 24/40/18 
f 17/41/12 6/42/6 11/43/10 25/44/9 
f 26/45/19 22/46/16 21/47/15 27/48/20 
f 20/49/14 28/50/21 21/51/15 
f 20/37/14 24/40/18 28/52/21 
f 29/53/22 30/54/23 31/55/24 32/56/25 
f 30/57/23 29/58/22 33/59/26 
f 34/60/27 32/61/25 31/62/24 
f 15/22/4 4/5/4 6/8/6 17/23/12 
f 14/18/1 1/1/1 4/4/4 15/19/4 
f 26/45/19 35/63/1 36/64/4 22/46/16 
f 22/32/16 36/65/4 37/66/6 19/29/13 
f 19/38/13 37/67/6 38/68/10 23/39/17 
f 35/63/1 39/69/1 40/70/4 36/64/4 
f 36/65/4 40/71/4 41/72/12 37/66/6 
f 42/73/7 17/74/12 25/75/9 43/76/9 
f 44/77/10 45/78/10 18/79/6 46/80/11 
f 47/81/11 37/66/6 41/72/12 48/82/7 
f 46/83/11 42/84/7 43/85/9 44/86/10 
f 47/87/11 48/88/7 49/89/9 50/90/10 
f 50/91/10 38/92/10 37/93/6 47/94/11 
f 48/95/7 41/96/12 51/97/9 49/98/9 
f 46/99/11 18/24/6 17/23/12 42/100/7 
f 41/101/12 18/102/6 45/103/10 51/104/9 
f 39/69/1 13/17/1 16/20/4 40/70/4 
f 40/71/4 16/21/4 18/24/6 41/72/12 
f 28/105/21 31/55/24 30/54/23 
f 28/50/21 30/106/23 21/51/15 
f 24/40/18 34/60/27 28/52/21 
f 28/52/21 34/60/27 31/62/24 
f 52/107/28 33/108/26 27/109/20 53/110/29 
f 33/59/26 52/111/28 30/57/23 
f 52/111/28 53/112/29 21/112/15 30/57/23 
f 21/51/15 53/113/29 27/114/20 
f 54/115/30 55/116/11 56/117/31 57/118/32 
f 55/119/11 58/120/33 59/121/34 56/122/31 
f 56/123/31 59/124/34 60/125/35 57/126/32 
f 57/127/32 60/128/35 61/129/4 54/130/30 
f 54/131/30 61/132/4 58/133/33 55/134/11 
f 1/1/1 62/4/35 63/3/36 2/2/2 
f 62/5/35 64/8/37 65/7/38 63/6/36 
f 66/9/39 9/12/9 8/11/8 65/10/38 
f 10/13/10 67/16/31 64/15/37 11/14/10 
f 13/17/1 68/20/35 69/19/35 14/18/1 
f 68/21/35 70/24/37 71/23/40 69/22/35 
f 67/25/31 10/28/10 9/27/9 66/26/39 
f 72/29/41 73/32/42 74/31/43 75/30/44 
f 65/10/38 8/11/8 2/34/2 63/33/36 
f 67/35/31 66/36/39 65/7/38 64/8/37 
f 75/37/44 24/40/18 23/39/17 72/38/41 
f 71/41/40 25/44/9 11/43/10 64/42/37 
f 26/45/19 27/48/20 74/47/43 73/46/42 
f 75/49/44 74/51/43 76/50/45 
f 75/37/44 76/52/45 24/40/18 
f 29/53/22 32/56/25 77/55/46 78/54/47 
f 78/57/47 33/59/26 29/58/22 
f 34/60/27 77/62/46 32/61/25 
f 69/22/35 71/23/40 64/8/37 62/5/35 
f 14/18/1 69/19/35 62/4/35 1/1/1 
f 26/45/19 73/46/42 79/64/35 35/63/1 
f 73/32/42 72/29/41 80/66/37 79/65/35 
f 72/38/41 23/39/17 38/68/10 80/67/37 
f 35/63/1 79/64/35 81/70/35 39/69/1 
f 79/65/35 80/66/37 82/72/40 81/71/35 
f 83/73/39 43/76/9 25/75/9 71/74/40 
f 44/77/10 84/80/31 70/79/37 45/78/10 
f 85/81/31 86/82/39 82/72/40 80/66/37 
f 84/83/31 44/86/10 43/85/9 83/84/39 
f 85/87/31 50/90/10 49/89/9 86/88/39 
f 50/91/10 85/94/31 80/93/37 38/92/10 
f 86/95/39 49/98/9 51/97/9 82/96/40 
f 84/99/31 83/100/39 71/23/40 70/24/37 
f 82/101/40 51/104/9 45/103/10 70/102/37 
f 39/69/1 81/70/35 68/20/35 13/17/1 
f 81/71/35 82/72/40 70/24/37 68/21/35 
f 76/105/45 78/54/47 77/55/46 
f 76/50/45 74/51/43 78/106/47 
f 24/40/18 76/52/45 34/60/27 
f 76/52/45 77/62/46 34/60/27 
f 87/107/48 88/110/49 27/109/20 33/108/26 
f 78/57/47 87/111/48 33/59/26 
f 87/111/48 78/57/47 74/112/43 88/112/49 
f 74/51/43 27/114/20 88/113/49 
f 89/115/32 90/118/30 91/117/11 92/116/31 
f 92/119/31 91/122/11 93/121/33 94/120/34 
f 91/123/11 90/126/30 95/125/4 93/124/33 
f 90/127/30 89/130/32 96/129/35 95/128/4 
f 89/131/32 92/134/31 94/133/34 96/132/35 
# 78 polygons - 20 triangles

