# 3ds Max Wavefront OBJ Exporter v0.97b - (c)2007 guruware
# File Created: 03.05.2017 23:59:17

mtllib Mesh_Cricyform.mtl

#
# object Object002
#

v  22.7511 0.0000 -21.9610
v  -0.0238 0.0000 0.0592
v  12.2230 0.0000 -28.0394
v  -0.0238 0.0000 -30.1504
v  -22.7986 0.0000 -21.9610
v  -12.2705 0.0000 -28.0394
# 6 vertices

vn 0.0000 1.0000 -0.0000
# 1 vertex normals

vt 1.0000 1.0000 0.0000
vt 0.0000 1.0000 0.0000
vt 0.8915 0.6168 0.0000
vt 0.6666 0.3215 0.0000
vt 0.0000 0.0000 0.0000
vt 0.3559 0.1184 0.0000
# 6 texture coords

g Object002
usemtl wire_227153153
s 4
f 3/3/1 2/2/1 1/1/1 
f 4/4/1 2/2/1 3/3/1 
f 2/2/1 6/6/1 5/5/1 
f 2/2/1 4/4/1 6/6/1 
# 0 polygons - 4 triangles

