# 3ds Max Wavefront OBJ Exporter v0.97b - (c)2007 guruware
# File Created: 08.04.2017 17:55:59

mtllib Bottle_3_Uv.mtl

#
# object Bottle_3_Uv
#

v  -1.4140 5.6495 1.4140
v  -1.4140 -0.0295 1.4140
v  0.0000 -0.0295 2.0000
v  0.0000 5.6495 2.0000
v  0.0000 5.6495 -2.0000
v  0.0000 -0.0295 -2.0000
v  -1.4140 -0.0295 -1.4140
v  -1.4140 5.6495 -1.4140
v  -2.0000 -0.0295 0.0000
v  -2.0000 5.6495 0.0000
v  0.0000 7.6475 -1.0050
v  -0.7100 7.6475 -0.7100
v  -1.0050 7.6475 0.0000
v  0.0000 -0.0295 0.0000
v  -0.7100 7.6475 0.7100
v  0.0000 7.6475 1.0050
v  -0.7100 10.4805 -0.7100
v  -1.0050 10.4805 0.0000
v  0.0000 10.4805 -1.0050
v  -0.7100 10.4805 0.7100
v  0.0000 10.4805 1.0050
v  -0.9290 11.1205 -0.9290
v  -0.9290 10.4805 -0.9290
v  -1.3150 10.4805 0.0000
v  -1.3150 11.1205 0.0000
v  0.0000 11.1205 -1.3150
v  0.0000 10.4805 -1.3150
v  -0.9290 10.4805 0.9290
v  -0.9290 11.1205 0.9290
v  0.0000 10.4805 1.3150
v  0.0000 11.1205 1.3150
v  0.0000 11.1205 0.0000
v  1.4140 5.6495 1.4140
v  1.4140 -0.0295 1.4140
v  1.4140 5.6495 -1.4140
v  1.4140 -0.0295 -1.4140
v  2.0000 5.6495 0.0000
v  2.0000 -0.0295 0.0000
v  0.7100 7.6475 -0.7100
v  1.0050 7.6475 0.0000
v  0.7100 7.6475 0.7100
v  0.7100 10.4805 -0.7100
v  1.0050 10.4805 0.0000
v  0.7100 10.4805 0.7100
v  0.9290 11.1205 -0.9290
v  1.3150 11.1205 0.0000
v  1.3150 10.4805 0.0000
v  0.9290 10.4805 -0.9290
v  0.9290 11.1205 0.9290
v  0.9290 10.4805 0.9290
# 50 vertices

vn -0.6902 0.2175 0.6902
vn -0.5490 -0.6303 0.5490
vn -0.0000 -0.6302 0.7764
vn -0.0000 0.2175 0.9761
vn -0.0000 0.2174 -0.9761
vn 0.0000 -0.6302 -0.7764
vn -0.5490 -0.6303 -0.5490
vn -0.6902 0.2175 -0.6902
vn -0.7764 -0.6302 -0.0000
vn -0.9761 0.2175 -0.0000
vn 0.0000 0.2427 -0.9701
vn -0.6861 0.2425 -0.6859
vn -0.9701 0.2426 -0.0001
vn 0.0000 -1.0000 -0.0000
vn -0.6859 0.2425 0.6861
vn -0.0000 0.2425 0.9701
vn -0.4206 -0.8039 -0.4206
vn -0.5940 -0.8045 -0.0000
vn 0.0000 -0.8045 -0.5940
vn -0.4206 -0.8039 0.4206
vn 0.0000 -0.8045 0.5940
vn -0.5489 0.6304 -0.5489
vn -0.5489 -0.6304 -0.5489
vn -0.7765 -0.6301 -0.0000
vn -0.7765 0.6301 0.0000
vn -0.0000 0.6301 -0.7765
vn 0.0000 -0.6301 -0.7765
vn -0.5489 -0.6304 0.5489
vn -0.5489 0.6304 0.5489
vn -0.0000 -0.6301 0.7765
vn 0.0000 0.6301 0.7765
vn 0.0000 1.0000 -0.0000
vn 0.6902 0.2175 0.6902
vn 0.5490 -0.6303 0.5490
vn 0.6902 0.2175 -0.6902
vn 0.5490 -0.6303 -0.5490
vn 0.9761 0.2175 -0.0000
vn 0.7764 -0.6302 0.0000
vn 0.6861 0.2425 -0.6859
vn 0.9701 0.2426 -0.0001
vn 0.6859 0.2425 0.6861
vn 0.4206 -0.8039 -0.4206
vn 0.5940 -0.8045 -0.0000
vn 0.4206 -0.8039 0.4206
vn 0.5489 0.6304 -0.5489
vn 0.7765 0.6301 -0.0000
vn 0.7765 -0.6301 0.0000
vn 0.5489 -0.6304 -0.5489
vn 0.5489 0.6304 0.5489
vn 0.5489 -0.6304 0.5489
# 50 vertex normals

vt 0.6262 0.1770 0.0000
vt 0.0114 0.1772 0.0000
vt 0.0114 0.0115 0.0000
vt 0.6262 0.0113 0.0000
vt 0.6264 0.6742 0.0000
vt 0.0115 0.6743 0.0000
vt 0.0115 0.5086 0.0000
vt 0.6263 0.5085 0.0000
vt 0.0114 0.3429 0.0000
vt 0.6263 0.3427 0.0000
vt 0.8645 0.6329 0.0000
vt 0.8645 0.5496 0.0000
vt 0.8645 0.4672 0.0000
vt 0.8644 0.3839 0.0000
vt 0.7434 0.9348 0.0000
vt 0.6910 0.8122 0.0000
vt 0.8653 0.8102 0.0000
vt 0.8672 0.9845 0.0000
vt 0.7407 0.6884 0.0000
vt 0.8633 0.6359 0.0000
vt 0.8644 0.3014 0.0000
vt 0.8644 0.2182 0.0000
vt 0.8644 0.1357 0.0000
vt 0.8643 0.0525 0.0000
vt 0.0996 0.9892 0.0000
vt 0.1014 0.6825 0.0000
vt 0.1847 0.6830 0.0000
vt 0.1829 0.9897 0.0000
vt 0.0164 0.9887 0.0000
vt 0.0182 0.6820 0.0000
vt 0.2679 0.6835 0.0000
vt 0.2661 0.9902 0.0000
vt 0.3511 0.6840 0.0000
vt 0.3493 0.9907 0.0000
vt 0.9012 0.1498 0.0000
vt 0.9705 0.1496 0.0000
vt 0.9709 0.2585 0.0000
vt 0.9016 0.2587 0.0000
vt 0.4096 0.9521 0.0000
vt 0.4334 0.9285 0.0000
vt 0.5101 0.9609 0.0000
vt 0.5099 0.9944 0.0000
vt 0.9008 0.0409 0.0000
vt 0.9701 0.0406 0.0000
vt 0.3684 0.8512 0.0000
vt 0.4019 0.8514 0.0000
vt 0.9713 0.3674 0.0000
vt 0.9020 0.3676 0.0000
vt 0.5872 0.9294 0.0000
vt 0.6107 0.9532 0.0000
vt 0.9716 0.4763 0.0000
vt 0.9023 0.4765 0.0000
vt 0.6195 0.8527 0.0000
vt 0.6531 0.8529 0.0000
vt 0.4100 0.7274 0.0000
vt 0.5112 0.6872 0.0000
vt 0.5091 0.8295 0.0000
vt 0.6111 0.7304 0.0000
vt 0.6514 0.8316 0.0000
vt 0.3667 0.8274 0.0000
# 60 texture coords

g Bottle_3_Uv
usemtl default
s 1
f 1/1/1 2/2/2 3/3/3 4/4/4 
f 5/5/5 6/6/6 7/7/7 8/8/8 
f 8/8/8 7/7/7 9/9/9 10/10/10 
f 10/10/10 9/9/9 2/2/2 1/1/1 
f 11/11/11 5/5/5 8/8/8 12/12/12 
f 12/13/12 8/8/8 10/10/10 13/14/13 
f 2/15/2 9/16/9 14/17/14 3/18/3 
f 14/17/14 9/16/9 7/19/7 6/20/6 
f 13/21/13 10/10/10 1/1/1 15/22/15 
f 15/23/15 1/1/1 4/4/4 16/24/16 
f 17/25/17 12/26/12 13/27/13 18/28/18 
f 19/29/19 11/30/11 12/26/12 17/25/17 
f 18/28/18 13/27/13 15/31/15 20/32/20 
f 20/32/20 15/31/15 16/33/16 21/34/21 
f 22/35/22 23/36/23 24/37/24 25/38/25 
f 23/39/23 17/40/17 18/41/18 24/42/24 
f 26/43/26 27/44/27 23/36/23 22/35/22 
f 27/45/27 19/46/19 17/40/17 23/39/23 
f 25/38/25 24/37/24 28/47/28 29/48/29 
f 24/42/24 18/41/18 20/49/20 28/50/28 
f 29/48/29 28/47/28 30/51/30 31/52/31 
f 28/50/28 20/49/20 21/53/21 30/54/30 
f 22/55/22 25/56/25 32/57/32 
f 25/56/25 29/58/29 32/57/32 
f 29/58/29 31/59/31 32/57/32 
f 26/60/26 22/55/22 32/57/32 
f 33/1/33 4/4/4 3/3/3 34/2/34 
f 5/5/5 35/8/35 36/7/36 6/6/6 
f 35/8/35 37/10/37 38/9/38 36/7/36 
f 37/10/37 33/1/33 34/2/34 38/9/38 
f 11/11/11 39/12/39 35/8/35 5/5/5 
f 39/13/39 40/14/40 37/10/37 35/8/35 
f 34/15/34 3/18/3 14/17/14 38/16/38 
f 14/17/14 6/20/6 36/19/36 38/16/38 
f 40/21/40 41/22/41 33/1/33 37/10/37 
f 41/23/41 16/24/16 4/4/4 33/1/33 
f 42/25/42 43/28/43 40/27/40 39/26/39 
f 19/29/19 42/25/42 39/26/39 11/30/11 
f 43/28/43 44/32/44 41/31/41 40/27/40 
f 44/32/44 21/34/21 16/33/16 41/31/41 
f 45/35/45 46/38/46 47/37/47 48/36/48 
f 48/39/48 47/42/47 43/41/43 42/40/42 
f 26/43/26 45/35/45 48/36/48 27/44/27 
f 27/45/27 48/39/48 42/40/42 19/46/19 
f 46/38/46 49/48/49 50/47/50 47/37/47 
f 47/42/47 50/50/50 44/49/44 43/41/43 
f 49/48/49 31/52/31 30/51/30 50/47/50 
f 50/50/50 30/54/30 21/53/21 44/49/44 
f 45/55/45 32/57/32 46/56/46 
f 46/56/46 32/57/32 49/58/49 
f 49/58/49 32/57/32 31/59/31 
f 26/60/26 32/57/32 45/55/45 
# 44 polygons - 8 triangles

