# 3ds Max Wavefront OBJ Exporter v0.97b - (c)2007 guruware
# File Created: 08.04.2017 12:23:31

mtllib Wall_Tree_Uv_Color.mtl

#
# object Wall_Tree_Uv
#

v  -48.6734 11.8594 6.6629
v  -48.6734 9.0766 -0.0554
v  48.6734 9.0766 -0.0554
v  48.6734 11.8594 6.6629
v  -48.6734 28.0788 -0.0554
v  -48.6734 25.2960 6.6629
v  48.6734 25.2960 6.6629
v  48.6734 28.0788 -0.0554
v  -48.6734 18.5777 -0.0554
v  -48.6734 18.5777 9.4457
v  48.6734 18.5777 9.4457
v  48.6734 18.5777 -0.0554
v  -48.6734 -6.4377 6.6629
v  -48.6734 -9.2205 -0.0554
v  48.6734 -9.2205 -0.0554
v  48.6734 -6.4377 6.6629
v  -48.6734 9.7817 -0.0554
v  -48.6734 6.9989 6.6629
v  48.6734 6.9989 6.6629
v  48.6734 9.7817 -0.0554
v  -48.6734 0.2806 -0.0554
v  -48.6734 0.2806 9.4457
v  48.6734 0.2806 9.4457
v  48.6734 0.2806 -0.0554
v  -48.6734 -25.2960 6.6629
v  -48.6734 -28.0788 -0.0554
v  48.6734 -28.0788 -0.0554
v  48.6734 -25.2960 6.6629
v  -48.6734 -9.0766 -0.0554
v  -48.6734 -11.8594 6.6629
v  48.6734 -11.8594 6.6629
v  48.6734 -9.0766 -0.0554
v  -48.6734 -18.5777 -0.0554
v  -48.6734 -18.5777 9.4457
v  48.6734 -18.5777 9.4457
v  48.6734 -18.5777 -0.0554
# 36 vertices

vn -0.6303 -0.5490 0.5490
vn -0.6000 -0.7391 0.3061
vn 0.6000 -0.7391 0.3061
vn 0.6303 -0.5490 0.5490
vn -0.6000 0.7391 0.3061
vn -0.6303 0.5490 0.5490
vn 0.6303 0.5490 0.5490
vn 0.6000 0.7391 0.3061
vn -1.0000 0.0000 -0.0000
vn -0.6303 0.0000 0.7764
vn 0.6303 0.0000 0.7764
vn 1.0000 0.0000 -0.0000
# 12 vertex normals

vt 0.0222 0.6262 0.0000
vt 0.0222 0.5627 0.0000
vt 0.8723 0.5627 0.0000
vt 0.8723 0.6262 0.0000
vt 0.0222 0.8167 0.0000
vt 0.0222 0.7532 0.0000
vt 0.8723 0.7532 0.0000
vt 0.8723 0.8167 0.0000
vt 0.1740 0.9717 0.0000
vt 0.0497 0.9717 0.0000
vt 0.0856 0.8850 0.0000
vt 0.1740 0.8474 0.0000
vt 0.0222 0.6897 0.0000
vt 0.8723 0.6897 0.0000
vt 0.2632 0.8833 0.0000
vt 0.3008 0.9717 0.0000
vt 0.3009 0.9717 0.0000
vt 0.0222 0.3557 0.0000
vt 0.0222 0.2922 0.0000
vt 0.8723 0.2922 0.0000
vt 0.8723 0.3557 0.0000
vt 0.0222 0.5463 0.0000
vt 0.0222 0.4828 0.0000
vt 0.8723 0.4828 0.0000
vt 0.8723 0.5463 0.0000
vt 0.0222 0.4193 0.0000
vt 0.8723 0.4193 0.0000
vt 0.0222 0.0855 0.0000
vt 0.0222 0.0220 0.0000
vt 0.8723 0.0220 0.0000
vt 0.8723 0.0855 0.0000
vt 0.0222 0.2761 0.0000
vt 0.0222 0.2125 0.0000
vt 0.8723 0.2125 0.0000
vt 0.8723 0.2761 0.0000
vt 0.0222 0.1490 0.0000
vt 0.8723 0.1490 0.0000
# 37 texture coords

g Wall_Tree_Uv
usemtl default
s 1
f 1/1/1 2/2/2 3/3/3 4/4/4 
f 5/5/5 6/6/6 7/7/7 8/8/8 
f 9/9/9 2/10/2 1/11/1 10/12/10 
f 6/6/6 10/13/10 11/14/11 7/7/7 
f 7/11/7 11/12/11 12/9/12 8/10/8 
f 6/15/6 5/16/5 9/9/9 10/12/10 
f 12/9/12 11/12/11 4/15/4 3/17/3 
f 10/13/10 1/1/1 4/4/4 11/14/11 
f 13/18/1 14/19/2 15/20/3 16/21/4 
f 17/22/5 18/23/6 19/24/7 20/25/8 
f 21/9/9 14/10/2 13/11/1 22/12/10 
f 18/23/6 22/26/10 23/27/11 19/24/7 
f 19/11/7 23/12/11 24/9/12 20/10/8 
f 18/15/6 17/16/5 21/9/9 22/12/10 
f 24/9/12 23/12/11 16/15/4 15/17/3 
f 22/26/10 13/18/1 16/21/4 23/27/11 
f 25/28/1 26/29/2 27/30/3 28/31/4 
f 29/32/5 30/33/6 31/34/7 32/35/8 
f 33/9/9 26/10/2 25/11/1 34/12/10 
f 30/33/6 34/36/10 35/37/11 31/34/7 
f 31/11/7 35/12/11 36/9/12 32/10/8 
f 30/15/6 29/16/5 33/9/9 34/12/10 
f 36/9/12 35/12/11 28/15/4 27/16/3 
f 34/36/10 25/28/1 28/31/4 35/37/11 
# 24 polygons

