# 3ds Max Wavefront OBJ Exporter v0.97b - (c)2007 guruware
# File Created: 08.04.2017 16:00:19

mtllib Picture_Uv.mtl

#
# object Picture_Uv
#

v  -25.5767 16.8628 -1.3137
v  -25.5767 16.8628 1.0856
v  25.5767 16.8628 1.0856
v  25.5767 16.8628 -1.3137
v  -25.5767 -18.2507 1.0856
v  -25.5767 -18.2507 -1.3137
v  25.5767 -18.2507 -1.3137
v  25.5767 -18.2507 1.0856
# 8 vertices

vn -0.5774 0.5774 -0.5774
vn -0.5774 0.5774 0.5774
vn 0.5774 0.5774 0.5774
vn 0.5774 0.5774 -0.5774
vn -0.5774 -0.5774 0.5774
vn -0.5774 -0.5774 -0.5774
vn 0.5774 -0.5774 -0.5774
vn 0.5774 -0.5774 0.5774
# 8 vertex normals

vt 0.0573 0.7083 0.0000
vt 0.0573 0.6668 0.0000
vt 0.9427 0.6668 0.0000
vt 0.9427 0.7083 0.0000
vt 0.0573 0.0590 0.0000
vt 0.0573 0.0175 0.0000
vt 0.9427 0.0175 0.0000
vt 0.9427 0.0590 0.0000
vt 0.0158 0.6668 0.0000
vt 0.0158 0.0590 0.0000
vt 0.9842 0.0590 0.0000
vt 0.9842 0.6668 0.0000
vt 0.0289 0.9892 0.0000
vt 0.0281 0.7230 0.0000
vt 0.4160 0.7219 0.0000
vt 0.4167 0.9881 0.0000
# 16 texture coords

g Picture_Uv
usemtl default
s 1
f 1/1/1 2/2/2 3/3/3 4/4/4 
f 5/5/5 6/6/6 7/7/7 8/8/8 
f 2/2/2 5/5/5 8/8/8 3/3/3 
f 1/9/1 6/10/6 5/5/5 2/2/2 
f 3/3/3 8/8/8 7/11/7 4/12/4 
f 4/13/4 7/14/7 6/15/6 1/16/1 
# 6 polygons

